#N canvas 625 0 1267 1028 12;
#X obj 100 100 cnv 5 500 356 empty empty empty 20 12 0 14 -1 -66577
0;
#X msg 642 140 bang;
#X obj 904 142 array define \$0-touringtable 64;
#X obj 807 29 loadbang;
#X msg 807 52 bang;
#X obj 807 102 f 1;
#X obj 807 126 +;
#X obj 872 29 select 64;
#X obj 967 101 tabwrite \$0-touringtable;
#X obj 967 78 random 2;
#X obj 807 76 t b b;
#X msg 839 98 0;
#X obj 937 54 t b b f;
#X obj 1132 79 - 1;
#X obj 348 200 hsl 236 83 2 64 0 0 empty \$0-length-r length\\\ 10
4 40 0 40 -204786 -43725 -62416 0 1;
#X obj 33 531 int;
#X obj 33 587 s \$0-length-r;
#X obj 348 285 hsl 236 83 0 64 0 0 empty \$0-random-r rand\\\ 95% 4
40 0 40 -204786 -43725 -66577 0 1;
#X obj 33 627 int;
#X obj 33 745 s \$0-random-r;
#X obj 513 114 sigsend~;
#X obj 754 825 int;
#X obj 746 932 sig~;
#X obj 101 114 sigrec~;
#X obj 642 43 env~ 16 16;
#X obj 642 67 > 70;
#X obj 642 91 change;
#X obj 642 115 sel 1;
#X text 22 34 trig_in;
#X text 20 18 -ALAN_MACHINE-;
#X msg 33 561 label length\\\ \$1;
#X obj 63 909 - 1;
#X msg 63 933 color \$1;
#X obj 63 957 s \$0-gate-flash1;
#X obj 515 100 cnv 10 81 12 empty empty output 3 7 0 11 -262144 -99865
0;
#X obj 103 100 cnv 10 81 12 empty empty trigger 3 7 0 11 -262144 -99865
0;
#X obj 344 417 cnv 5 65 38 empty \$0-turing-value-r 0% 7 20 0 30 -1
-228856 0;
#X obj 212 943 s \$0-turing-value-r;
#X obj 212 899 makefilename %i;
#X obj 327 873 * 100;
#X msg 212 921 label \$1%;
#X obj 105 370 hsl 236 83 0 10 0 0 empty \$0-range-r 24\ steps 4 40
0 40 -204786 -43725 -66577 4700 1;
#X obj 327 595 s \$0-range-r;
#X obj 327 499 * 12;
#X obj 327 523 int;
#X obj 327 547 max 1;
#X obj 412 417 cnv 5 65 38 empty \$0-step-value-r note66 7 20 0 26
-1 -228856 0;
#X obj 860 896 s \$0-step-value-r;
#X obj 105 200 hsl 236 83 0 10 0 0 empty \$0-step-offset-r min\ 1 4
40 0 40 -204786 -43725 -66577 0 1;
#X obj 442 487 * 12;
#X obj 442 511 int;
#X obj 442 535 max 1;
#X obj 442 585 s \$0-step-offset-r;
#X obj 736 735 t b f;
#X obj 736 759 +;
#X obj 736 802 min 120;
#X msg 753 59 2;
#X obj 736 780 * 1;
#X obj 565 419 tgl 32 0 empty empty QNT 2 16 0 16 -204786 -43725 -66577
1 1;
#X msg 860 872 label note\$1;
#X obj 773 853 *;
#X obj 736 854 *;
#X obj 547 467 - 1;
#X obj 547 491 abs;
#X obj 33 660 / 0.64;
#X obj 33 684 int;
#X msg 33 719 label rand\\\ \$1%;
#X msg 442 559 label min\\\ \$1;
#X obj 105 285 hsl 236 83 0 10 0 0 empty \$0-step-max-r max\ 120 4
40 0 40 -204786 -43725 -66577 23500 1;
#X obj 658 506 * 12;
#X obj 658 530 int;
#X obj 658 554 max 1;
#X msg 658 578 label max\\\ \$1;
#X obj 658 604 s \$0-step-max-r;
#X obj 881 349 t b f;
#X obj 881 428 -;
#X obj 881 479 +;
#X obj 881 450 *;
#X obj 928 413 t b f;
#X msg 327 571 label \$1\\\ steps;
#X obj 817 826 * 10;
#X obj 817 850 int;
#X obj 817 874 / 10;
#X obj 860 848 makefilename %.1f;
#X obj 910 825 makefilename %i;
#X obj 910 802 change;
#X obj 860 825 change;
#X obj 271 114 sigrec~;
#X obj 273 100 cnv 10 81 12 empty empty steps 3 7 0 11 -262144 -99865
0;
#X obj 356 114 sigrec~;
#X obj 358 100 cnv 10 81 12 empty empty random 3 7 0 11 -262144 -99865
0;
#X obj 151 566 change;
#X obj 151 590 * 63;
#X obj 151 614 + 1;
#X obj 151 538 abs;
#X obj 151 514 snapshot~;
#X floatatom 189 610 5 0 0 0 - - -;
#X msg 753 111 10;
#X msg 762 84 0;
#X msg 762 138 1;
#X obj 736 902 / 120;
#X obj 736 878 change;
#X obj 783 900 change;
#X obj 928 366 int;
#X obj 928 342 *;
#X obj 928 390 /;
#N canvas 0 50 1092 917 turingtables 0;
#X obj 689 145 inlet trigger;
#X obj 966 146 inlet length;
#X obj 689 173 f 1;
#X obj 689 197 +;
#X obj 817 199 mod 64;
#X obj 848 387 tabread \$0-touringtable;
#X obj 848 267 + 1;
#X obj 848 291 mod 64;
#X obj 867 338 mod 64;
#X obj 867 314 + 2;
#X obj 867 361 tabread \$0-touringtable;
#X obj 897 532 tabread \$0-touringtable;
#X obj 897 436 mod 64;
#X obj 916 483 mod 64;
#X obj 916 506 tabread \$0-touringtable;
#X obj 897 412 + 3;
#X obj 916 459 + 4;
#X obj 680 427 tabread \$0-touringtable;
#X obj 696 769 +;
#X obj 714 723 * 2;
#X obj 714 747 +;
#X obj 747 723 +;
#X obj 747 699 * 4;
#X obj 777 699 +;
#X obj 777 675 * 8;
#X obj 809 674 +;
#X obj 809 650 * 16;
#X obj 680 451 +;
#X obj 680 475 mod 2;
#X obj 680 296 t f b f;
#X obj 680 499 tabwrite \$0-touringtable;
#X obj 703 327 random 64;
#X obj 703 351 < 32;
#X obj 830 245 t f f f f f f f;
#X obj 848 650 +;
#X obj 848 626 * 32;
#X obj 940 587 mod 64;
#X obj 940 610 tabread \$0-touringtable;
#X obj 940 563 + 5;
#X obj 958 656 mod 64;
#X obj 958 679 tabread \$0-touringtable;
#X obj 958 632 + 6;
#X obj 892 632 * 64;
#X obj 966 227 int;
#X floatatom 696 793 5 0 0 0 - - -;
#X obj 101 101 tgl 32 0 empty empty empty 17 7 0 10 -1 -228856 -1 0
1;
#X obj 134 101 tgl 32 0 empty empty empty 17 7 0 10 -1 -228856 -1 0
1;
#X obj 167 101 tgl 32 0 empty empty empty 17 7 0 10 -1 -228856 -1 0
1;
#X obj 200 101 tgl 32 0 empty empty empty 17 7 0 10 -1 -228856 -1 0
1;
#X obj 233 101 tgl 32 0 empty empty empty 17 7 0 10 -1 -228856 -1 0
1;
#X obj 266 101 tgl 32 0 empty empty empty 17 7 0 10 -1 -228856 -1 0
1;
#X obj 299 101 tgl 32 0 empty empty empty 17 7 0 10 -1 -228856 -1 0
1;
#X obj 671 826 outlet;
#X obj 1073 146 inlet random;
#X connect 0 0 2 0;
#X connect 1 0 43 0;
#X connect 2 0 3 0;
#X connect 3 0 4 0;
#X connect 4 0 3 1;
#X connect 4 0 33 0;
#X connect 5 0 19 0;
#X connect 5 0 46 0;
#X connect 6 0 7 0;
#X connect 7 0 5 0;
#X connect 8 0 10 0;
#X connect 9 0 8 0;
#X connect 10 0 22 0;
#X connect 10 0 47 0;
#X connect 11 0 24 0;
#X connect 11 0 48 0;
#X connect 12 0 11 0;
#X connect 13 0 14 0;
#X connect 14 0 26 0;
#X connect 14 0 49 0;
#X connect 15 0 12 0;
#X connect 16 0 13 0;
#X connect 17 0 27 0;
#X connect 18 0 44 0;
#X connect 18 0 52 0;
#X connect 19 0 20 0;
#X connect 20 0 18 1;
#X connect 21 0 20 1;
#X connect 22 0 21 0;
#X connect 23 0 21 1;
#X connect 24 0 23 0;
#X connect 25 0 23 1;
#X connect 26 0 25 0;
#X connect 27 0 28 0;
#X connect 28 0 30 0;
#X connect 28 0 18 0;
#X connect 28 0 45 0;
#X connect 29 0 17 0;
#X connect 29 1 31 0;
#X connect 29 2 30 1;
#X connect 31 0 32 0;
#X connect 32 0 27 1;
#X connect 33 0 29 0;
#X connect 33 1 6 0;
#X connect 33 2 9 0;
#X connect 33 3 15 0;
#X connect 33 4 16 0;
#X connect 33 5 38 0;
#X connect 33 6 41 0;
#X connect 34 0 25 1;
#X connect 35 0 34 0;
#X connect 36 0 37 0;
#X connect 37 0 35 0;
#X connect 37 0 50 0;
#X connect 38 0 36 0;
#X connect 39 0 40 0;
#X connect 40 0 42 0;
#X connect 40 0 51 0;
#X connect 41 0 39 0;
#X connect 42 0 34 1;
#X connect 43 0 4 1;
#X connect 43 0 12 1;
#X connect 53 0 32 1;
#X coords 0 -1 1 1 232 35 2 100 100;
#X restore 354 377 pd turingtables;
#X text 927 298 turing value;
#X obj 881 522 / 128;
#X obj 928 319 / 128;
#X obj 270 519 change;
#X obj 270 567 + 1;
#X obj 270 491 abs;
#X obj 270 467 snapshot~;
#X obj 270 543 * 119;
#X obj 186 114 sigrec~;
#X obj 188 100 cnv 10 81 12 empty empty maximum 3 7 0 11 -262144 -99865
0;
#X obj 609 530 change;
#X obj 609 578 + 1;
#X obj 609 502 abs;
#X obj 609 478 snapshot~;
#X obj 609 554 * 119;
#X obj 597 599 * 10;
#X msg 597 623 set \$1;
#X obj 255 591 * 10;
#X msg 255 615 set \$1;
#X obj 139 637 * 10;
#X msg 139 661 set \$1;
#X connect 1 0 95 0;
#X connect 1 0 106 0;
#X connect 1 0 113 0;
#X connect 1 0 120 0;
#X connect 3 0 4 0;
#X connect 3 0 56 0;
#X connect 3 0 98 0;
#X connect 3 0 97 0;
#X connect 3 0 99 0;
#X connect 4 0 10 0;
#X connect 5 0 6 0;
#X connect 6 0 7 0;
#X connect 7 1 12 0;
#X connect 9 0 8 0;
#X connect 10 0 5 0;
#X connect 10 1 11 0;
#X connect 11 0 6 1;
#X connect 12 0 5 0;
#X connect 12 1 9 0;
#X connect 12 2 6 1;
#X connect 12 2 13 0;
#X connect 13 0 8 1;
#X connect 14 0 15 0;
#X connect 14 0 106 1;
#X connect 15 0 30 0;
#X connect 17 0 18 0;
#X connect 18 0 64 0;
#X connect 18 0 106 2;
#X connect 21 0 60 0;
#X connect 22 0 20 0;
#X connect 23 0 24 0;
#X connect 24 0 25 0;
#X connect 25 0 26 0;
#X connect 26 0 27 0;
#X connect 27 0 1 0;
#X connect 30 0 16 0;
#X connect 31 0 32 0;
#X connect 32 0 33 0;
#X connect 38 0 40 0;
#X connect 39 0 38 0;
#X connect 40 0 37 0;
#X connect 41 0 43 0;
#X connect 43 0 44 0;
#X connect 44 0 45 0;
#X connect 45 0 79 0;
#X connect 45 0 104 1;
#X connect 45 0 105 1;
#X connect 48 0 49 0;
#X connect 49 0 50 0;
#X connect 50 0 51 0;
#X connect 51 0 67 0;
#X connect 51 0 54 0;
#X connect 51 0 74 0;
#X connect 53 0 54 0;
#X connect 53 1 54 1;
#X connect 54 0 57 0;
#X connect 55 0 21 0;
#X connect 55 0 61 0;
#X connect 56 0 41 0;
#X connect 57 0 55 0;
#X connect 58 0 62 0;
#X connect 58 0 60 1;
#X connect 59 0 47 0;
#X connect 60 0 85 0;
#X connect 60 0 102 0;
#X connect 61 0 80 0;
#X connect 61 0 101 0;
#X connect 62 0 63 0;
#X connect 63 0 61 1;
#X connect 64 0 65 0;
#X connect 65 0 66 0;
#X connect 66 0 19 0;
#X connect 67 0 52 0;
#X connect 68 0 69 0;
#X connect 69 0 70 0;
#X connect 70 0 71 0;
#X connect 71 0 72 0;
#X connect 71 0 75 0;
#X connect 72 0 73 0;
#X connect 74 0 75 0;
#X connect 74 1 75 1;
#X connect 74 1 76 1;
#X connect 75 0 77 0;
#X connect 76 0 108 0;
#X connect 76 0 53 0;
#X connect 77 0 76 0;
#X connect 78 0 77 0;
#X connect 78 1 77 1;
#X connect 79 0 42 0;
#X connect 80 0 81 0;
#X connect 81 0 82 0;
#X connect 82 0 86 0;
#X connect 83 0 59 0;
#X connect 84 0 59 0;
#X connect 85 0 84 0;
#X connect 86 0 83 0;
#X connect 87 0 113 0;
#X connect 89 0 95 0;
#X connect 91 0 92 0;
#X connect 92 0 93 0;
#X connect 92 0 126 0;
#X connect 93 0 96 0;
#X connect 93 0 18 0;
#X connect 94 0 91 0;
#X connect 95 0 94 0;
#X connect 97 0 68 0;
#X connect 98 0 48 0;
#X connect 99 0 58 0;
#X connect 100 0 22 0;
#X connect 101 0 100 0;
#X connect 102 0 100 0;
#X connect 103 0 105 0;
#X connect 104 0 103 0;
#X connect 105 0 78 0;
#X connect 106 0 109 0;
#X connect 108 0 39 0;
#X connect 109 0 104 0;
#X connect 110 0 114 0;
#X connect 111 0 44 0;
#X connect 112 0 110 0;
#X connect 113 0 112 0;
#X connect 114 0 111 0;
#X connect 114 0 124 0;
#X connect 115 0 120 0;
#X connect 117 0 121 0;
#X connect 117 0 122 0;
#X connect 118 0 70 0;
#X connect 119 0 117 0;
#X connect 120 0 119 0;
#X connect 121 0 118 0;
#X connect 122 0 123 0;
#X connect 123 0 68 0;
#X connect 124 0 125 0;
#X connect 125 0 41 0;
#X connect 126 0 127 0;
#X connect 127 0 17 0;
#X coords 0 -1 1 1 500 356 2 100 100;
