#N canvas 302 186 1424 533 12;
#X obj 10 10 cnv 5 500 356 empty empty empty 20 12 0 14 -1 -66577 0
;
#X obj 959 376 loadbang;
#X msg 933 415 0.5;
#X msg 969 405 \; pd dsp 1;
#X obj 12 24 sigrec~;
#X obj 857 244 *~ 120;
#X obj 857 438 mtof~;
#X obj 857 462 osc~;
#X obj 352 24 sigsend~;
#X obj 896 220 * 12;
#X obj 857 388 +~;
#X obj 857 412 min~ 120;
#X obj 857 358 +~;
#X obj 875 336 * 12;
#X obj 896 199 + 1;
#X obj 857 305 expr~ (int($v1*(($f2*9999)+1)))/(($f2*9999)+1);
#X obj 1176 258 - 1;
#X obj 1176 282 abs;
#X obj 97 24 nbx3 1 10;
#X obj 182 24 nbx3 1 10;
#X obj 267 24 nbx3 1 11;
#X obj 533 36 loadbang;
#X msg 533 58 9;
#X obj 12 109 sigrec~;
#X obj 1220 259 *~ 120;
#X obj 1220 453 mtof~;
#X obj 1220 477 osc~;
#X obj 352 109 sigsend~;
#X obj 1259 235 * 12;
#X obj 1220 403 +~;
#X obj 1220 427 min~ 120;
#X obj 1220 373 +~;
#X obj 1238 351 * 12;
#X obj 1259 214 + 1;
#X obj 1220 320 expr~ (int($v1*(($f2*9999)+1)))/(($f2*9999)+1);
#X obj 1539 273 - 1;
#X obj 1539 297 abs;
#X obj 97 109 nbx3 1 10;
#X obj 182 109 nbx3 1 10;
#X obj 267 109 nbx3 1 11;
#X obj 99 10 cnv 10 81 12 empty empty range_(8vs) 3 7 0 11 -262144
-99865 0;
#X obj 184 10 cnv 10 81 12 empty empty 8v_offset 3 7 0 11 -262144 -99865
0;
#X obj 14 10 cnv 10 81 12 empty empty freq_cv 3 7 0 11 -262144 -99865
0;
#X obj 269 10 cnv 10 81 12 empty empty step_offset 3 7 0 11 -262144
-99865 0;
#X obj 354 10 cnv 10 81 12 empty empty osc_out 3 7 0 11 -262144 -99865
0;
#X obj 438 40 tgl 69 0 empty empty quantize 7 34 0 12 -204786 -1 -1
0 1;
#X obj 438 124 tgl 69 0 empty empty quantize 7 34 0 12 -204786 -1 -1
0 1;
#X obj 12 193 sigrec~;
#X obj 811 534 *~ 120;
#X obj 811 728 mtof~;
#X obj 811 752 osc~;
#X obj 352 193 sigsend~;
#X obj 850 510 * 12;
#X obj 811 678 +~;
#X obj 811 702 min~ 120;
#X obj 811 648 +~;
#X obj 829 626 * 12;
#X obj 850 489 + 1;
#X obj 811 595 expr~ (int($v1*(($f2*9999)+1)))/(($f2*9999)+1);
#X obj 1130 548 - 1;
#X obj 1130 572 abs;
#X obj 97 193 nbx3 1 10;
#X obj 182 193 nbx3 1 10;
#X obj 267 193 nbx3 1 11;
#X obj 438 208 tgl 69 0 empty empty quantize 7 34 0 12 -204786 -1 -1
0 1;
#X obj 12 278 sigrec~;
#X obj 971 692 *~ 120;
#X obj 971 886 mtof~;
#X obj 971 910 osc~;
#X obj 352 278 sigsend~;
#X obj 1010 668 * 12;
#X obj 971 836 +~;
#X obj 971 860 min~ 120;
#X obj 971 806 +~;
#X obj 989 784 * 12;
#X obj 1010 647 + 1;
#X obj 971 753 expr~ (int($v1*(($f2*9999)+1)))/(($f2*9999)+1);
#X obj 1290 706 - 1;
#X obj 1290 730 abs;
#X obj 97 278 nbx3 1 10;
#X obj 182 278 nbx3 1 10;
#X obj 267 278 nbx3 1 11;
#X obj 438 293 tgl 69 0 empty empty quantize 7 34 0 12 -204786 -1 -1
0 1;
#X obj 822 211 abs~;
#X obj 1215 227 abs~;
#X obj 789 501 abs~;
#X obj 953 657 abs~;
#X msg 575 62 0;
#X connect 1 0 2 0;
#X connect 1 0 3 0;
#X connect 2 0 7 1;
#X connect 2 0 26 1;
#X connect 4 0 83 0;
#X connect 5 0 15 0;
#X connect 6 0 7 0;
#X connect 7 0 8 0;
#X connect 9 0 5 1;
#X connect 10 0 11 0;
#X connect 11 0 6 0;
#X connect 12 0 10 0;
#X connect 13 0 12 1;
#X connect 14 0 9 0;
#X connect 15 0 12 0;
#X connect 16 0 17 0;
#X connect 17 0 15 1;
#X connect 18 0 14 0;
#X connect 19 0 13 0;
#X connect 20 0 10 1;
#X connect 21 0 22 0;
#X connect 21 0 87 0;
#X connect 22 0 18 0;
#X connect 22 0 37 0;
#X connect 22 0 61 0;
#X connect 22 0 79 0;
#X connect 23 0 84 0;
#X connect 24 0 34 0;
#X connect 25 0 26 0;
#X connect 26 0 27 0;
#X connect 28 0 24 1;
#X connect 29 0 30 0;
#X connect 30 0 25 0;
#X connect 31 0 29 0;
#X connect 32 0 31 1;
#X connect 33 0 28 0;
#X connect 34 0 31 0;
#X connect 35 0 36 0;
#X connect 36 0 34 1;
#X connect 37 0 33 0;
#X connect 38 0 32 0;
#X connect 39 0 29 1;
#X connect 45 0 16 0;
#X connect 46 0 35 0;
#X connect 47 0 85 0;
#X connect 48 0 58 0;
#X connect 49 0 50 0;
#X connect 50 0 51 0;
#X connect 52 0 48 1;
#X connect 53 0 54 0;
#X connect 54 0 49 0;
#X connect 55 0 53 0;
#X connect 56 0 55 1;
#X connect 57 0 52 0;
#X connect 58 0 55 0;
#X connect 59 0 60 0;
#X connect 60 0 58 1;
#X connect 61 0 57 0;
#X connect 62 0 56 0;
#X connect 63 0 53 1;
#X connect 64 0 59 0;
#X connect 65 0 86 0;
#X connect 66 0 76 0;
#X connect 67 0 68 0;
#X connect 68 0 69 0;
#X connect 70 0 66 1;
#X connect 71 0 72 0;
#X connect 72 0 67 0;
#X connect 73 0 71 0;
#X connect 74 0 73 1;
#X connect 75 0 70 0;
#X connect 76 0 73 0;
#X connect 77 0 78 0;
#X connect 78 0 76 1;
#X connect 79 0 75 0;
#X connect 80 0 74 0;
#X connect 81 0 71 1;
#X connect 82 0 77 0;
#X connect 83 0 5 0;
#X connect 84 0 24 0;
#X connect 85 0 48 0;
#X connect 86 0 66 0;
#X connect 87 0 45 0;
#X connect 87 0 82 0;
#X connect 87 0 64 0;
#X connect 87 0 46 0;
#X coords 0 -1 1 1 500 356 2 10 10;
