#N canvas 290 273 969 657 12;
#X obj 101 101 nbx 3 83 -1e+037 1e+037 0 0 empty empty empty 0 -8 0
11 -262144 -1 -1 6 256;
#X obj 101 101 cnv 20 150 83 empty empty empty 2 18 0 28 -1 -66577
0;
#X msg 134 519 label \$1;
#X obj 134 543 s \$0-disp-r;
#X obj 134 390 +;
#X obj 218 338 t b f;
#X obj 134 494 makefilename %g;
#X obj 134 414 * 1000;
#X obj 134 438 int;
#X obj 134 462 / 1000;
#X obj 282 482 outlet;
#X obj 484 6 inlet;
#X obj 333 100 t f f;
#X obj 333 124 -;
#X obj 333 253 +;
#X obj 196 101 nbx 3 83 -1e+037 1e+037 0 0 empty empty empty 0 4 0
4 -262144 -1 -1 -6191 256;
#X obj 333 305 int;
#X obj 333 329 / 1000;
#X obj 102 102 cnv 20 148 81 empty \$0-disp-r 0 6 44 0 32 -204786 -66577
0;
#X obj 362 253 f;
#X obj 101 188 t f f;
#X obj 101 212 -;
#X obj 101 235 +;
#X obj 101 283 int;
#X obj 130 235 f;
#X obj 101 260 / 12;
#X obj 333 282 / 12;
#X obj 379 175 pow 2;
#X obj 333 148 moses 0;
#X obj 333 172 abs;
#X obj 333 196 pow 2;
#X obj 333 220 * -1;
#X connect 0 0 20 0;
#X connect 2 0 3 0;
#X connect 4 0 7 0;
#X connect 5 0 4 0;
#X connect 5 1 4 1;
#X connect 6 0 2 0;
#X connect 7 0 8 0;
#X connect 8 0 9 0;
#X connect 9 0 6 0;
#X connect 9 0 10 0;
#X connect 11 0 6 0;
#X connect 11 0 10 0;
#X connect 12 0 13 1;
#X connect 12 1 13 0;
#X connect 13 0 28 0;
#X connect 14 0 19 0;
#X connect 14 0 26 0;
#X connect 15 0 12 0;
#X connect 16 0 17 0;
#X connect 17 0 5 0;
#X connect 19 0 14 1;
#X connect 20 0 21 1;
#X connect 20 1 21 0;
#X connect 21 0 22 0;
#X connect 22 0 24 0;
#X connect 22 0 25 0;
#X connect 23 0 4 0;
#X connect 24 0 22 1;
#X connect 25 0 23 0;
#X connect 26 0 16 0;
#X connect 27 0 14 0;
#X connect 28 0 29 0;
#X connect 28 1 27 0;
#X connect 29 0 30 0;
#X connect 30 0 31 0;
#X connect 31 0 14 0;
#X coords 0 -1 1 1 152 85 2 100 100;
