#N canvas 87 41 452 353 10;
#X obj 63 24 inlet x;
#X obj 176 25 inlet y;
#X obj 73 105 pow 2;
#X obj 118 105 pow 2;
#X obj 112 158 +;
#X obj 118 127 t b f;
#X obj 112 180 sqrt;
#X obj 84 245 outlet mag;
#X obj 251 93 t b f;
#X obj 260 317 outlet angle;
#X obj 118 85 abs;
#X obj 73 85 abs;
#X obj 237 176 atan2;
#X obj 238 147 f;
#X connect 0 0 8 0;
#X connect 0 0 11 0;
#X connect 1 0 10 0;
#X connect 1 0 13 0;
#X connect 2 0 4 0;
#X connect 3 0 5 0;
#X connect 4 0 6 0;
#X connect 5 0 4 0;
#X connect 5 1 4 1;
#X connect 6 0 7 0;
#X connect 8 0 13 0;
#X connect 8 1 12 1;
#X connect 10 0 3 0;
#X connect 11 0 2 0;
#X connect 12 0 9 0;
#X connect 13 0 12 0;
