#N canvas 533 165 1433 943 12;
#X obj 10 10 cnv 5 500 356 empty empty empty 20 12 0 14 -1 -66577 0
;
#X obj 266 25 sigrec~;
#X obj 181 25 sigsend~;
#X obj 11 25 nbx3 1 20;
#X obj 96 25 nbx3 1 20;
#X obj 1539 273 - 1;
#X obj 1539 297 abs;
#X obj 13 11 cnv 10 81 12 empty empty multiplier 3 7 0 11 -262144 -99865
0;
#X obj 268 11 cnv 10 81 12 empty empty tempo_cv 3 7 0 11 -262144 -99865
0;
#X obj 98 11 cnv 10 81 12 empty empty divisor 3 7 0 11 -262144 -99865
0;
#X obj 183 11 cnv 10 81 12 empty empty clock_out 3 7 0 11 -262144 -99865
0;
#X obj 751 331 tgl 69 0 empty \$0-switch-r on 4 34 0 34 -204786 -1
-1 1 1;
#X obj 270 111 hsl 236 83 0 10 0 0 empty \$0-clock-speed-r 160\ bpm
4 40 0 40 -204786 -43725 -66577 15300 1;
#X obj 816 243 int;
#X obj 816 295 s \$0-clock-speed-r;
#X msg 816 269 label \$1\\\ bpm;
#X obj 816 125 / 10;
#X floatatom 769 225 5 0 0 0 - - -;
#X obj 816 149 exp;
#X obj 816 173 - 1;
#X obj 816 197 / 1.718;
#X obj 816 220 * 300;
#X floatatom 769 277 5 0 0 0 - - -;
#X obj 943 200 expr 60000 / $f1;
#X obj 836 373 s \$0-switch-r;
#X msg 836 347 label on;
#X msg 906 347 label off;
#X obj 836 325 sel 1 0;
#X obj 422 26 bng 69 250 50 0 empty empty empty 17 7 0 10 -262144 -1
-1;
#X obj 439 26 bng 69 250 50 0 empty empty empty 17 7 0 10 -262144 -1
-1;
#X obj 351 28 vsl 69 78 0 78 0 0 empty \$0-1-r 0% 8 40 0 22 -204786
-43725 -66577 0 1;
#X obj 926 104 * 100;
#X obj 926 129 int;
#X obj 926 175 s \$0-1-r;
#X msg 926 151 label \$1%;
#X obj 352 11 cnv 10 67 12 empty empty attenuate 3 7 0 11 -262144 -99865
0;
#X obj 422 11 cnv 10 85 12 empty empty switch 3 7 0 11 -262144 -99865
0;
#X obj 1043 93 snapshot~;
#X obj 1043 58 bang~;
#X obj 1043 117 *;
#X obj 993 299 +;
#X floatatom 896 244 5 0 0 0 - - -;
#X obj 943 224 t b b f;
#X obj 993 261 *;
#X floatatom 1070 151 5 0 0 0 - - -;
#X obj 751 434 f;
#X obj 181 110 sigsend~;
#X obj 11 110 nbx3 1 20;
#X obj 96 110 nbx3 1 20;
#X obj 181 195 sigsend~;
#X obj 11 195 nbx3 1 20;
#X obj 96 195 nbx3 1 20;
#X obj 181 280 sigsend~;
#X obj 11 280 nbx3 1 20;
#X obj 96 280 nbx3 1 20;
#X obj 926 81 / 78;
#X obj 422 40 bng 69 250 50 0 empty empty empty 17 7 0 10 -262144 -1
-1;
#X obj 439 40 bng 69 250 50 0 empty empty empty 17 7 0 10 -262144 -1
-1;
#X obj 422 27 cnv 15 85 81 empty \$0-switch-r on 10 41 0 36 -204786
-66577 0;
#N canvas 49 407 805 481 clock1 0;
#X obj 41 35 inlet;
#X obj 41 59 t b b f b;
#X msg 102 81 stop;
#X obj 81 108 /;
#X obj 63 135 del;
#X obj 41 161 f 1;
#X msg 70 161 0;
#X obj 41 185 +;
#X obj 84 35 inlet div;
#X obj 154 35 inlet mult;
#X msg 75 210 0;
#X floatatom 110 139 5 0 0 0 - - -;
#X obj 116 212 t b f;
#X obj 75 186 sel 0;
#X obj 270 245 f 1;
#X msg 270 217 bang;
#X obj 270 269 +;
#X obj 302 270 mod 2;
#X obj 302 294 sel 1;
#X obj 346 270 != 1;
#X obj 302 370 outlet~;
#X obj 367 372 outlet;
#X obj 302 342 line~;
#X msg 302 318 1 \, 0 1;
#X obj 367 327 f 1;
#X obj 406 343 f 0;
#X obj 406 319 del 50;
#X obj 445 280 / 2;
#X connect 0 0 1 0;
#X connect 1 0 5 0;
#X connect 1 1 6 0;
#X connect 1 2 3 0;
#X connect 1 3 2 0;
#X connect 2 0 4 0;
#X connect 3 0 4 1;
#X connect 3 0 11 0;
#X connect 3 0 27 0;
#X connect 4 0 5 0;
#X connect 5 0 7 0;
#X connect 6 0 7 1;
#X connect 7 0 13 0;
#X connect 7 0 15 0;
#X connect 8 0 3 1;
#X connect 8 0 13 1;
#X connect 9 0 17 1;
#X connect 9 0 19 0;
#X connect 12 0 4 0;
#X connect 12 1 7 1;
#X connect 13 0 10 0;
#X connect 13 1 12 0;
#X connect 14 0 16 0;
#X connect 15 0 14 0;
#X connect 16 0 17 0;
#X connect 17 0 16 1;
#X connect 17 0 18 0;
#X connect 18 0 23 0;
#X connect 18 0 24 0;
#X connect 18 0 26 0;
#X connect 19 0 18 1;
#X connect 22 0 20 0;
#X connect 23 0 22 0;
#X connect 24 0 21 0;
#X connect 25 0 21 0;
#X connect 26 0 25 0;
#X connect 27 0 26 1;
#X restore 641 162 pd clock1;
#X obj 751 405 metro 10;
#X floatatom 993 323 5 0 0 0 - - -;
#X obj 554 7 loadbang;
#X msg 554 29 4.85;
#X obj 456 244 tgl 32 0 empty empty empty 17 7 0 10 -1 -228856 -1 1
1;
#X obj 456 283 tgl 32 0 empty empty empty 17 7 0 10 -1 -228856 -1 0
1;
#X obj 456 207 tgl 32 0 empty empty empty 17 7 0 10 -1 -228856 -1 0
1;
#X obj 456 320 tgl 32 0 empty empty empty 17 7 0 10 -1 -228856 -1 0
1;
#N canvas 49 407 805 481 clock1 0;
#X obj 41 35 inlet;
#X obj 41 59 t b b f b;
#X msg 102 81 stop;
#X obj 81 108 /;
#X obj 63 135 del;
#X obj 41 161 f 1;
#X msg 70 161 0;
#X obj 41 185 +;
#X obj 84 35 inlet div;
#X obj 154 35 inlet mult;
#X msg 75 210 0;
#X floatatom 110 139 5 0 0 0 - - -;
#X obj 116 212 t b f;
#X obj 75 186 sel 0;
#X obj 270 245 f 1;
#X msg 270 217 bang;
#X obj 270 269 +;
#X obj 302 270 mod 2;
#X obj 302 294 sel 1;
#X obj 346 270 != 1;
#X obj 302 370 outlet~;
#X obj 367 372 outlet;
#X obj 302 342 line~;
#X msg 302 318 1 \, 0 1;
#X obj 367 327 f 1;
#X obj 406 343 f 0;
#X obj 406 319 del 50;
#X obj 445 280 / 2;
#X connect 0 0 1 0;
#X connect 1 0 5 0;
#X connect 1 1 6 0;
#X connect 1 2 3 0;
#X connect 1 3 2 0;
#X connect 2 0 4 0;
#X connect 3 0 4 1;
#X connect 3 0 11 0;
#X connect 3 0 27 0;
#X connect 4 0 5 0;
#X connect 5 0 7 0;
#X connect 6 0 7 1;
#X connect 7 0 13 0;
#X connect 7 0 15 0;
#X connect 8 0 3 1;
#X connect 8 0 13 1;
#X connect 9 0 17 1;
#X connect 9 0 19 0;
#X connect 12 0 4 0;
#X connect 12 1 7 1;
#X connect 13 0 10 0;
#X connect 13 1 12 0;
#X connect 14 0 16 0;
#X connect 15 0 14 0;
#X connect 16 0 17 0;
#X connect 17 0 16 1;
#X connect 17 0 18 0;
#X connect 18 0 23 0;
#X connect 18 0 24 0;
#X connect 18 0 26 0;
#X connect 19 0 18 1;
#X connect 22 0 20 0;
#X connect 23 0 22 0;
#X connect 24 0 21 0;
#X connect 25 0 21 0;
#X connect 26 0 25 0;
#X connect 27 0 26 1;
#X restore 641 192 pd clock1;
#N canvas 721 166 1009 593 clock1 0;
#X obj 41 35 inlet;
#X obj 41 59 t b b f b;
#X msg 102 81 stop;
#X obj 81 108 /;
#X obj 63 135 del;
#X obj 41 161 f 1;
#X msg 70 161 0;
#X obj 41 185 +;
#X obj 84 35 inlet div;
#X obj 154 35 inlet mult;
#X msg 75 210 0;
#X floatatom 110 139 5 0 0 0 - - -;
#X obj 116 212 t b f;
#X obj 75 186 sel 0;
#X obj 270 245 f 1;
#X msg 270 217 bang;
#X obj 270 269 +;
#X obj 302 270 mod 2;
#X obj 302 294 sel 1;
#X obj 346 270 != 1;
#X obj 302 370 outlet~;
#X obj 367 372 outlet;
#X obj 302 342 line~;
#X msg 302 318 1 \, 0 1;
#X obj 367 327 f 1;
#X obj 406 343 f 0;
#X obj 406 319 del 50;
#X obj 445 280 / 2;
#X obj 545 106 *;
#X obj 545 130 t b f;
#X msg 545 154 1000;
#X obj 545 178 /;
#X msg 545 202 \$1 2;
#X obj 545 226 line~;
#X obj 545 250 osc~;
#X obj 545 504 outlet~;
#X obj 638 11 inlet waveshape;
#X obj 642 227 phasor~;
#X obj 545 274 +~ 1;
#X obj 545 298 /~ 2;
#X obj 545 392 *~;
#X obj 593 392 *~;
#X obj 643 392 *~;
#X obj 695 278 expr~ if ($v1 > 0.5 \, 1 \, 0);
#X obj 694 392 *~;
#X msg 720 137 0 4;
#X obj 563 367 line~;
#X obj 611 367 line~;
#X obj 661 367 line~;
#X obj 712 367 line~;
#X obj 638 35 t f b;
#X msg 638 90 1 4;
#X msg 656 114 1 4;
#X msg 675 90 1 4;
#X msg 693 114 1 4;
#X obj 593 274 *~ -2;
#X obj 593 298 +~ 1;
#X obj 593 322 abs~;
#X obj 642 251 *~ -1;
#X obj 642 275 +~ 1;
#X obj 638 65 sel 0 1 2;
#X obj 545 470 *~;
#X obj 487 441 line~;
#X msg 487 415 \$1 3;
#X obj 487 394 != 0;
#X obj 790 24 inlet off;
#X connect 0 0 1 0;
#X connect 1 0 5 0;
#X connect 1 1 6 0;
#X connect 1 2 3 0;
#X connect 1 3 2 0;
#X connect 2 0 4 0;
#X connect 3 0 4 1;
#X connect 3 0 11 0;
#X connect 3 0 27 0;
#X connect 3 0 28 0;
#X connect 4 0 5 0;
#X connect 5 0 7 0;
#X connect 6 0 7 1;
#X connect 7 0 13 0;
#X connect 7 0 15 0;
#X connect 8 0 3 1;
#X connect 8 0 13 1;
#X connect 9 0 17 1;
#X connect 9 0 19 0;
#X connect 9 0 28 1;
#X connect 12 0 4 0;
#X connect 12 1 7 1;
#X connect 13 0 10 0;
#X connect 13 1 12 0;
#X connect 14 0 16 0;
#X connect 15 0 14 0;
#X connect 16 0 17 0;
#X connect 17 0 16 1;
#X connect 17 0 18 0;
#X connect 18 0 23 0;
#X connect 18 0 24 0;
#X connect 18 0 26 0;
#X connect 19 0 18 1;
#X connect 22 0 20 0;
#X connect 23 0 22 0;
#X connect 24 0 21 0;
#X connect 25 0 21 0;
#X connect 26 0 25 0;
#X connect 27 0 26 1;
#X connect 28 0 29 0;
#X connect 29 0 30 0;
#X connect 29 1 31 1;
#X connect 30 0 31 0;
#X connect 31 0 32 0;
#X connect 32 0 33 0;
#X connect 33 0 34 0;
#X connect 33 0 37 0;
#X connect 34 0 38 0;
#X connect 36 0 50 0;
#X connect 37 0 43 0;
#X connect 37 0 55 0;
#X connect 37 0 58 0;
#X connect 38 0 39 0;
#X connect 39 0 40 0;
#X connect 40 0 61 1;
#X connect 41 0 61 1;
#X connect 42 0 61 1;
#X connect 43 0 44 0;
#X connect 44 0 61 1;
#X connect 45 0 46 0;
#X connect 45 0 47 0;
#X connect 45 0 48 0;
#X connect 45 0 49 0;
#X connect 46 0 40 1;
#X connect 47 0 41 1;
#X connect 48 0 42 1;
#X connect 49 0 44 1;
#X connect 50 0 60 0;
#X connect 50 1 45 0;
#X connect 51 0 46 0;
#X connect 52 0 47 0;
#X connect 53 0 48 0;
#X connect 54 0 49 0;
#X connect 55 0 56 0;
#X connect 56 0 57 0;
#X connect 57 0 41 0;
#X connect 58 0 59 0;
#X connect 59 0 42 0;
#X connect 60 0 51 0;
#X connect 60 1 52 0;
#X connect 60 2 53 0;
#X connect 60 3 54 0;
#X connect 61 0 35 0;
#X connect 62 0 61 0;
#X connect 63 0 62 0;
#X connect 64 0 63 0;
#X connect 65 0 64 0;
#X restore 590 534 pd clock1;
#X msg 595 29 1;
#X obj 351 195 sigsend~;
#X obj 266 195 wavsel;
#X obj 351 280 sigsend~;
#X obj 266 280 wavsel;
#N canvas -2 471 1023 543 clock1 0;
#X obj 41 35 inlet;
#X obj 41 59 t b b f b;
#X msg 102 81 stop;
#X obj 81 108 /;
#X obj 63 135 del;
#X obj 41 161 f 1;
#X msg 70 161 0;
#X obj 41 185 +;
#X obj 84 35 inlet div;
#X obj 154 35 inlet mult;
#X msg 75 210 0;
#X floatatom 110 139 5 0 0 0 - - -;
#X obj 116 212 t b f;
#X obj 75 186 sel 0;
#X obj 270 245 f 1;
#X msg 270 217 bang;
#X obj 270 269 +;
#X obj 302 270 mod 2;
#X obj 302 294 sel 1;
#X obj 346 270 != 1;
#X obj 302 370 outlet~;
#X obj 367 372 outlet;
#X obj 302 342 line~;
#X msg 302 318 1 \, 0 1;
#X obj 367 327 f 1;
#X obj 406 343 f 0;
#X obj 406 369 del 50;
#X obj 445 280 / 2;
#X obj 545 106 *;
#X obj 545 130 t b f;
#X msg 545 154 1000;
#X obj 545 178 /;
#X msg 545 202 \$1 2;
#X obj 545 226 line~;
#X obj 545 250 osc~;
#X obj 545 494 outlet~;
#X obj 638 11 inlet waveshape;
#X obj 632 249 phasor~;
#X obj 545 274 +~ 1;
#X obj 545 298 /~ 2;
#X obj 593 338 abs~;
#X obj 545 402 *~;
#X obj 593 402 *~;
#X obj 643 402 *~;
#X obj 695 278 expr~ if ($v1 > 0.5 \, 1 \, 0);
#X obj 694 402 *~;
#X msg 720 137 0 4;
#X obj 563 377 line~;
#X obj 611 377 line~;
#X obj 661 377 line~;
#X obj 712 377 line~;
#X obj 638 35 t f b;
#X msg 638 90 1 4;
#X msg 656 114 1 4;
#X msg 675 90 1 4;
#X msg 693 114 1 4;
#X obj 593 274 *~ -2;
#X obj 593 298 +~ 1;
#X obj 638 65 sel 0 1 2;
#X obj 642 275 *~ -1;
#X obj 642 299 +~ 1;
#X obj 545 470 *~;
#X obj 487 441 line~;
#X msg 487 415 \$1 3;
#X obj 487 394 != 0;
#X obj 790 24 inlet off;
#X connect 0 0 1 0;
#X connect 1 0 5 0;
#X connect 1 1 6 0;
#X connect 1 2 3 0;
#X connect 1 3 2 0;
#X connect 2 0 4 0;
#X connect 3 0 4 1;
#X connect 3 0 11 0;
#X connect 3 0 27 0;
#X connect 3 0 28 0;
#X connect 4 0 5 0;
#X connect 5 0 7 0;
#X connect 6 0 7 1;
#X connect 7 0 13 0;
#X connect 7 0 15 0;
#X connect 8 0 3 1;
#X connect 8 0 13 1;
#X connect 9 0 17 1;
#X connect 9 0 19 0;
#X connect 9 0 28 1;
#X connect 12 0 4 0;
#X connect 12 1 7 1;
#X connect 13 0 10 0;
#X connect 13 1 12 0;
#X connect 14 0 16 0;
#X connect 15 0 14 0;
#X connect 16 0 17 0;
#X connect 17 0 16 1;
#X connect 17 0 18 0;
#X connect 18 0 23 0;
#X connect 18 0 24 0;
#X connect 18 0 26 0;
#X connect 19 0 18 1;
#X connect 22 0 20 0;
#X connect 23 0 22 0;
#X connect 24 0 21 0;
#X connect 25 0 21 0;
#X connect 26 0 25 0;
#X connect 27 0 26 1;
#X connect 28 0 29 0;
#X connect 29 0 30 0;
#X connect 29 1 31 1;
#X connect 30 0 31 0;
#X connect 31 0 32 0;
#X connect 32 0 33 0;
#X connect 33 0 34 0;
#X connect 33 0 37 0;
#X connect 34 0 38 0;
#X connect 36 0 51 0;
#X connect 37 0 44 0;
#X connect 37 0 56 0;
#X connect 37 0 59 0;
#X connect 38 0 39 0;
#X connect 39 0 41 0;
#X connect 40 0 42 0;
#X connect 41 0 61 1;
#X connect 42 0 61 1;
#X connect 43 0 61 1;
#X connect 44 0 45 0;
#X connect 45 0 61 1;
#X connect 46 0 47 0;
#X connect 46 0 48 0;
#X connect 46 0 49 0;
#X connect 46 0 50 0;
#X connect 47 0 41 1;
#X connect 48 0 42 1;
#X connect 49 0 43 1;
#X connect 50 0 45 1;
#X connect 51 0 58 0;
#X connect 51 1 46 0;
#X connect 52 0 47 0;
#X connect 53 0 48 0;
#X connect 54 0 49 0;
#X connect 55 0 50 0;
#X connect 56 0 57 0;
#X connect 57 0 40 0;
#X connect 58 0 52 0;
#X connect 58 1 53 0;
#X connect 58 2 54 0;
#X connect 58 3 55 0;
#X connect 59 0 60 0;
#X connect 60 0 43 0;
#X connect 61 0 35 0;
#X connect 62 0 61 0;
#X connect 63 0 62 0;
#X connect 64 0 63 0;
#X connect 65 0 64 0;
#X restore 591 573 pd clock1;
#X connect 1 0 37 0;
#X connect 3 0 59 2;
#X connect 4 0 59 1;
#X connect 5 0 6 0;
#X connect 11 0 27 0;
#X connect 11 0 60 0;
#X connect 11 0 69 4;
#X connect 11 0 75 4;
#X connect 12 0 16 0;
#X connect 13 0 15 0;
#X connect 13 0 22 0;
#X connect 13 0 23 0;
#X connect 15 0 14 0;
#X connect 16 0 18 0;
#X connect 18 0 19 0;
#X connect 19 0 20 0;
#X connect 20 0 17 0;
#X connect 20 0 21 0;
#X connect 21 0 13 0;
#X connect 23 0 41 0;
#X connect 23 0 42 0;
#X connect 25 0 24 0;
#X connect 26 0 24 0;
#X connect 27 0 25 0;
#X connect 27 1 26 0;
#X connect 28 0 11 0;
#X connect 29 0 11 0;
#X connect 30 0 55 0;
#X connect 31 0 32 0;
#X connect 32 0 34 0;
#X connect 34 0 33 0;
#X connect 37 0 39 0;
#X connect 38 0 37 0;
#X connect 39 0 43 0;
#X connect 39 0 44 0;
#X connect 40 0 45 1;
#X connect 40 0 60 1;
#X connect 40 0 61 0;
#X connect 42 1 43 0;
#X connect 42 2 43 1;
#X connect 42 2 40 1;
#X connect 43 0 40 0;
#X connect 45 0 59 0;
#X connect 45 0 68 0;
#X connect 45 0 69 0;
#X connect 45 0 75 0;
#X connect 47 0 68 2;
#X connect 48 0 68 1;
#X connect 50 0 69 2;
#X connect 51 0 69 1;
#X connect 53 0 75 2;
#X connect 54 0 75 1;
#X connect 55 0 31 0;
#X connect 55 0 39 1;
#X connect 56 0 11 0;
#X connect 57 0 11 0;
#X connect 59 0 2 0;
#X connect 59 1 66 0;
#X connect 60 0 45 0;
#X connect 62 0 63 0;
#X connect 62 0 70 0;
#X connect 63 0 12 0;
#X connect 68 0 46 0;
#X connect 68 1 64 0;
#X connect 69 0 49 0;
#X connect 69 1 65 0;
#X connect 69 2 71 0;
#X connect 70 0 4 0;
#X connect 70 0 54 0;
#X connect 70 0 53 0;
#X connect 70 0 51 0;
#X connect 70 0 50 0;
#X connect 70 0 48 0;
#X connect 70 0 47 0;
#X connect 70 0 3 0;
#X connect 72 0 69 3;
#X connect 74 0 75 3;
#X connect 75 0 52 0;
#X connect 75 1 67 0;
#X connect 75 2 73 0;
#X coords 0 -1 1 1 500 356 2 10 10;
