#N canvas 176 77 977 863 10;
#N canvas 142 289 525 685 pos.calc 0;
#X obj 165 21 inlet x;
#X obj 219 21 inlet y;
#X obj 277 21 inlet rad;
#X obj 345 21 inlet deg;
#X obj 373 98 * 3.1416;
#X obj 296 189 / 2;
#X obj 296 211 + 1;
#X obj 296 236 * 50;
#X obj 296 258 + 10;
#X obj 329 189 / 2;
#X obj 329 211 + 1;
#X obj 329 236 * 50;
#X obj 329 258 + 10;
#X obj 373 121 t b f;
#X obj 373 76 / 180;
#X obj 286 525 * 180;
#X obj 286 502 / 3.14156;
#X obj 220 601 outlet radius;
#X obj 315 601 outlet degree;
#X obj 157 488 * -1;
#X obj 59 518 outlet x;
#X obj 123 518 outlet y;
#X obj 373 53 + 270;
#X obj 286 556 + 90;
#X obj 315 579 mod 360;
#X floatatom 312 170 7 0 0 0 - - -;
#X obj 294 122 f;
#X obj 286 442 t b f;
#X obj 262 462 f;
#X floatatom 393 577 5 0 0 0 - - -;
#X obj 158 547 * 100;
#X msg 158 569 set \$1;
#X obj 158 591 s \$0-rad;
#X msg 415 533 set \$1;
#X obj 415 555 s \$0-deg;
#X floatatom 347 527 5 0 0 0 - - -;
#X floatatom 247 524 5 0 0 0 - - -;
#X floatatom 333 554 5 0 0 0 - - -;
#X obj 263 481 cartopolar;
#X floatatom 369 171 5 0 0 0 - - -;
#X obj 296 149 polartocar;
#X connect 0 0 28 0;
#X connect 0 0 20 0;
#X connect 1 0 21 0;
#X connect 1 0 27 0;
#X connect 2 0 26 0;
#X connect 3 0 22 0;
#X connect 3 0 24 0;
#X connect 4 0 13 0;
#X connect 5 0 6 0;
#X connect 6 0 7 0;
#X connect 7 0 8 0;
#X connect 9 0 10 0;
#X connect 10 0 11 0;
#X connect 11 0 12 0;
#X connect 13 0 26 0;
#X connect 13 1 40 1;
#X connect 14 0 4 0;
#X connect 15 0 23 0;
#X connect 16 0 15 0;
#X connect 16 0 37 0;
#X connect 19 0 21 0;
#X connect 22 0 14 0;
#X connect 23 0 24 0;
#X connect 24 0 18 0;
#X connect 24 0 29 0;
#X connect 26 0 17 0;
#X connect 26 0 40 0;
#X connect 27 0 28 0;
#X connect 27 1 38 1;
#X connect 28 0 38 0;
#X connect 30 0 31 0;
#X connect 31 0 32 0;
#X connect 33 0 34 0;
#X connect 38 0 17 0;
#X connect 38 0 30 0;
#X connect 38 0 36 0;
#X connect 38 1 16 0;
#X connect 38 1 33 0;
#X connect 38 1 35 0;
#X connect 40 0 5 0;
#X connect 40 0 20 0;
#X connect 40 0 25 0;
#X connect 40 1 9 0;
#X connect 40 1 19 0;
#X connect 40 1 39 0;
#X restore 590 404 pd pos.calc;
#X obj 326 443 delwrite~ \$0.outness 1000;
#X obj 754 639 vd~ \$0.outness;
#X text 776 531 # of feet away;
#X obj 754 549 / 0.125;
#X obj 754 573 abs;
#X obj 754 617 line~;
#X obj 364 781 *~;
#X obj 364 756 line~;
#X msg 364 734 \$1 100;
#X obj 421 781 *~;
#X obj 421 756 line~;
#X msg 421 734 \$1 100;
#X obj 534 747 *~;
#X obj 534 722 line~;
#X msg 534 700 \$1 100;
#X obj 591 747 *~;
#X obj 591 722 line~;
#X msg 591 700 \$1 100;
#X obj 754 514 * 3;
#X msg 701 127 set \$1;
#X msg 740 100 0;
#X msg 766 434 set \$1;
#X msg 639 433 set \$1;
#X obj 534 771 dac~ 3;
#X obj 596 771 dac~ 4;
#X obj 701 76 select 0 360;
#X msg 701 98 360;
#X floatatom 721 459 5 0 0 0 - - -;
#X obj 415 16 loadbang;
#X msg 544 275 set \$1;
#X obj 544 297 s \$0-x-location;
#X msg 568 317 set \$1;
#X obj 568 339 s \$0-y-location;
#X msg 671 270 set \$1;
#X msg 695 312 set \$1;
#X obj 671 292 s \$0-radius;
#X obj 695 334 s \$0-degree;
#X obj 754 595 pack \$1 100;
#X msg 780 264 set \$1;
#X obj 780 286 s \$0-doppler;
#X msg 431 44 100;
#X floatatom 662 473 5 0 0 0 - - -;
#X obj 587 225 - 2;
#X obj 613 255 - 2;
#X floatatom 270 622 5 0 0 0 - - -;
#X floatatom 313 651 5 0 0 0 - - -;
#X floatatom 370 671 5 0 0 0 - - -;
#X floatatom 425 675 5 0 0 0 - - -;
#X floatatom 529 433 5 0 0 0 - - -;
#X floatatom 609 459 5 0 0 0 - - -;
#X obj 324 545 placement 135;
#X obj 346 568 placement 45;
#X obj 365 599 placement -135;
#X obj 385 631 placement -45;
#X floatatom 866 575 5 0 0 0 - - -;
#X obj 605 161 inlet x;
#X obj 616 181 inlet y;
#X obj 633 201 inlet rad;
#X obj 655 222 inlet deg;
#X obj 780 243 inlet doppler;
#X obj 393 832 outlet~;
#X obj 454 832 outlet~;
#X obj 327 160 inlet~;
#X connect 0 0 49 0;
#X connect 0 0 51 0;
#X connect 0 0 52 0;
#X connect 0 0 53 0;
#X connect 0 0 54 0;
#X connect 0 1 50 0;
#X connect 0 1 51 1;
#X connect 0 1 52 1;
#X connect 0 1 53 1;
#X connect 0 1 54 1;
#X connect 0 2 19 0;
#X connect 0 2 23 0;
#X connect 0 2 42 0;
#X connect 0 3 22 0;
#X connect 0 3 28 0;
#X connect 2 0 7 1;
#X connect 2 0 10 1;
#X connect 2 0 16 1;
#X connect 2 0 13 1;
#X connect 4 0 5 0;
#X connect 4 0 55 0;
#X connect 5 0 38 0;
#X connect 6 0 2 0;
#X connect 7 0 61 0;
#X connect 8 0 7 0;
#X connect 9 0 8 0;
#X connect 10 0 62 0;
#X connect 11 0 10 0;
#X connect 12 0 11 0;
#X connect 13 0 24 0;
#X connect 14 0 13 0;
#X connect 15 0 14 0;
#X connect 16 0 25 0;
#X connect 17 0 16 0;
#X connect 18 0 17 0;
#X connect 19 0 4 0;
#X connect 21 0 20 0;
#X connect 26 0 27 0;
#X connect 26 1 21 0;
#X connect 27 0 20 0;
#X connect 29 0 41 0;
#X connect 30 0 31 0;
#X connect 32 0 33 0;
#X connect 34 0 36 0;
#X connect 35 0 37 0;
#X connect 38 0 6 0;
#X connect 39 0 40 0;
#X connect 41 0 38 1;
#X connect 43 0 30 0;
#X connect 43 0 0 0;
#X connect 44 0 0 1;
#X connect 44 0 32 0;
#X connect 51 0 9 0;
#X connect 51 0 45 0;
#X connect 52 0 12 0;
#X connect 52 0 46 0;
#X connect 53 0 15 0;
#X connect 53 0 47 0;
#X connect 54 0 18 0;
#X connect 54 0 48 0;
#X connect 56 0 43 0;
#X connect 57 0 44 0;
#X connect 58 0 0 2;
#X connect 58 0 34 0;
#X connect 59 0 0 3;
#X connect 59 0 35 0;
#X connect 60 0 39 0;
#X connect 63 0 1 0;
#X coords 0 863 1 862 300 179 0;
