#N canvas 518 133 1344 786 12;
#X obj 10 10 cnv 5 500 356 empty empty empty 20 12 0 14 -1 -66577 0
;
#X obj 12 25 sigrec~;
#X obj 97 110 sigsend~;
#X obj 14 11 cnv 10 81 12 empty empty hihat 3 7 0 11 -262144 -99865
0;
#X obj 423 195 sigsend~;
#X obj 12 110 sigsend~;
#X obj 97 25 sigrec~;
#X obj 99 11 cnv 10 81 12 empty empty clap 3 7 0 11 -262144 -99865
0;
#X obj 182 25 sigrec~;
#X obj 184 11 cnv 10 81 12 empty empty snare 3 7 0 11 -262144 -99865
0;
#X obj 267 25 sigrec~;
#X obj 269 11 cnv 10 81 12 empty empty kick 3 7 0 11 -262144 -99865
0;
#X obj 423 25 sigrec~;
#X obj 425 11 cnv 10 81 12 empty empty side_chains 3 7 0 11 -262144
-99865 0;
#X obj 423 110 sigrec~;
#X obj 423 280 sigsend~;
#X obj 267 110 sigsend~;
#X obj 182 110 sigsend~;
#N canvas 992 40 690 550 hihat 0;
#X obj 83 518 outlet~;
#X obj 377 72 inlet~;
#X obj 10 10 tgl 41 0 empty empty empty 17 7 0 10 -204786 -66577 -1
0 1;
#X obj 52 10 tgl 41 0 empty empty empty 17 7 0 10 -204786 -66577 -1
0 1;
#X obj 94 10 tgl 41 0 empty empty empty 17 7 0 10 -204786 -66577 -1
0 1;
#X obj 136 10 tgl 41 0 empty empty empty 17 7 0 10 -204786 -66577 -1
0 1;
#X obj 178 10 tgl 41 0 empty empty empty 17 7 0 10 -204786 -66577 -1
0 1;
#X obj 220 10 tgl 41 0 empty empty empty 17 7 0 10 -204786 -66577 -1
0 1;
#X obj 262 10 tgl 41 0 empty empty empty 17 7 0 10 -204786 -66577 -1
0 1;
#X obj 304 10 tgl 41 0 empty empty empty 17 7 0 10 -204786 -66577 -1
0 1;
#X obj 377 96 env~;
#X obj 389 167 change;
#X obj 389 191 sel 1;
#X obj 389 215 f 1;
#X obj 389 239 +;
#X obj 424 239 mod 8;
#X obj 10 64 f;
#X obj 51 64 f;
#X obj 94 64 f;
#X obj 135 64 f;
#X obj 178 64 f;
#X obj 219 64 f;
#X obj 262 64 f;
#X obj 303 64 f;
#X obj 384 16 loadbang;
#X msg 384 40 1;
#X obj 424 263 sel 0 1 2 3 4 5 6 7;
#X obj 147 181 sel 1;
#X obj 83 494 *~;
#X obj 22 403 hip~ 800;
#X obj 22 427 hip~ 800;
#X obj 147 229 line~;
#X obj 147 253 *~;
#X obj 9 165 square~ 10000;
#X obj 22 186 square~ 12050;
#X obj 35 208 square~ 7050;
#X obj 27 232 /~ 8;
#X obj 35 307 /~ 8;
#X obj 34 258 square~ 11025;
#X obj 47 280 square~ 9075;
#X obj 35 357 /~ 2;
#X obj 80 321 noise~;
#X obj 80 345 /~ 8;
#X obj 22 451 clip~ -1 1;
#X msg 147 205 1 \, 0 200;
#X obj 377 120 > 75;
#X obj 520 22 inlet;
#X msg 520 46 0;
#X connect 1 0 10 0;
#X connect 2 0 16 1;
#X connect 3 0 17 1;
#X connect 4 0 18 1;
#X connect 5 0 19 1;
#X connect 6 0 20 1;
#X connect 7 0 21 1;
#X connect 8 0 22 1;
#X connect 9 0 23 1;
#X connect 10 0 45 0;
#X connect 11 0 12 0;
#X connect 12 0 13 0;
#X connect 13 0 14 0;
#X connect 14 0 15 0;
#X connect 15 0 14 1;
#X connect 15 0 26 0;
#X connect 16 0 27 0;
#X connect 17 0 27 0;
#X connect 18 0 27 0;
#X connect 19 0 27 0;
#X connect 20 0 27 0;
#X connect 21 0 27 0;
#X connect 22 0 27 0;
#X connect 23 0 27 0;
#X connect 24 0 25 0;
#X connect 25 0 9 0;
#X connect 25 0 8 0;
#X connect 25 0 7 0;
#X connect 25 0 6 0;
#X connect 25 0 5 0;
#X connect 25 0 4 0;
#X connect 25 0 3 0;
#X connect 25 0 2 0;
#X connect 26 0 16 0;
#X connect 26 1 17 0;
#X connect 26 2 18 0;
#X connect 26 3 19 0;
#X connect 26 4 20 0;
#X connect 26 5 21 0;
#X connect 26 6 22 0;
#X connect 26 7 23 0;
#X connect 27 0 44 0;
#X connect 28 0 0 0;
#X connect 29 0 30 0;
#X connect 30 0 43 0;
#X connect 31 0 32 0;
#X connect 31 0 32 1;
#X connect 32 0 28 1;
#X connect 33 0 40 0;
#X connect 34 0 36 0;
#X connect 35 0 36 0;
#X connect 36 0 29 0;
#X connect 37 0 29 0;
#X connect 38 0 37 0;
#X connect 39 0 37 0;
#X connect 40 0 29 0;
#X connect 41 0 42 0;
#X connect 42 0 29 0;
#X connect 43 0 28 0;
#X connect 44 0 31 0;
#X connect 45 0 11 0;
#X connect 46 0 47 0;
#X connect 47 0 14 1;
#X coords 0 -1 1 1 338 41 2 10 10;
#X restore 14 196 pd hihat;
#N canvas 110 62 690 743 hihat 0;
#X obj 83 588 outlet~;
#X obj 377 72 inlet~;
#X obj 10 10 tgl 41 0 empty empty empty 17 7 0 10 -204786 -66577 -1
0 1;
#X obj 52 10 tgl 41 0 empty empty empty 17 7 0 10 -204786 -66577 -1
0 1;
#X obj 94 10 tgl 41 0 empty empty empty 17 7 0 10 -204786 -66577 -1
0 1;
#X obj 136 10 tgl 41 0 empty empty empty 17 7 0 10 -204786 -66577 -1
0 1;
#X obj 178 10 tgl 41 0 empty empty empty 17 7 0 10 -204786 -66577 -1
1 1;
#X obj 220 10 tgl 41 0 empty empty empty 17 7 0 10 -204786 -66577 -1
0 1;
#X obj 262 10 tgl 41 0 empty empty empty 17 7 0 10 -204786 -66577 -1
0 1;
#X obj 304 10 tgl 41 0 empty empty empty 17 7 0 10 -204786 -66577 -1
0 1;
#X obj 377 96 env~;
#X obj 389 167 change;
#X obj 389 191 sel 1;
#X obj 389 215 f 1;
#X obj 389 239 +;
#X obj 424 239 mod 8;
#X obj 10 64 f;
#X obj 51 64 f;
#X obj 94 64 f;
#X obj 135 64 f;
#X obj 178 64 f;
#X obj 219 64 f;
#X obj 262 64 f;
#X obj 303 64 f;
#X obj 384 16 loadbang;
#X msg 384 40 1;
#X obj 424 263 sel 0 1 2 3 4 5 6 7;
#X obj 153 181 sel 1;
#X obj 83 494 *~;
#X obj 153 229 line~;
#X obj 153 253 *~;
#X obj 21 236 noise~;
#X obj 22 365 clip~ -1 1;
#X obj 22 293 hip~ 30;
#X obj 22 317 hip~ 30;
#X obj 83 471 clip~ -1 1;
#X obj 82 438 lop~ 11000;
#X obj 87 293 bp~ 60 4;
#X obj 22 389 bp~ 480 2;
#X obj 50 414 bp~ 905 2;
#X obj 87 317 *~ 16;
#X obj 153 277 *~;
#X obj 83 518 hip~ 905;
#X obj 149 518 lop~ 480;
#X obj 149 542 hip~ 50;
#X msg 153 205 1 \, 0 80;
#X obj 377 120 > 75;
#X obj 520 22 inlet;
#X msg 520 46 0;
#X connect 1 0 10 0;
#X connect 2 0 16 1;
#X connect 3 0 17 1;
#X connect 4 0 18 1;
#X connect 5 0 19 1;
#X connect 6 0 20 1;
#X connect 7 0 21 1;
#X connect 8 0 22 1;
#X connect 9 0 23 1;
#X connect 10 0 46 0;
#X connect 11 0 12 0;
#X connect 12 0 13 0;
#X connect 13 0 14 0;
#X connect 14 0 15 0;
#X connect 15 0 14 1;
#X connect 15 0 26 0;
#X connect 16 0 27 0;
#X connect 17 0 27 0;
#X connect 18 0 27 0;
#X connect 19 0 27 0;
#X connect 20 0 27 0;
#X connect 21 0 27 0;
#X connect 22 0 27 0;
#X connect 23 0 27 0;
#X connect 24 0 25 0;
#X connect 25 0 9 0;
#X connect 25 0 8 0;
#X connect 25 0 7 0;
#X connect 25 0 6 0;
#X connect 25 0 5 0;
#X connect 25 0 4 0;
#X connect 25 0 3 0;
#X connect 25 0 2 0;
#X connect 26 0 16 0;
#X connect 26 1 17 0;
#X connect 26 2 18 0;
#X connect 26 3 19 0;
#X connect 26 4 20 0;
#X connect 26 5 21 0;
#X connect 26 6 22 0;
#X connect 26 7 23 0;
#X connect 27 0 45 0;
#X connect 28 0 42 0;
#X connect 28 0 43 0;
#X connect 29 0 30 0;
#X connect 29 0 30 1;
#X connect 30 0 41 0;
#X connect 30 0 41 1;
#X connect 31 0 33 0;
#X connect 31 0 37 0;
#X connect 32 0 36 0;
#X connect 32 0 38 0;
#X connect 32 0 39 0;
#X connect 33 0 34 0;
#X connect 34 0 32 0;
#X connect 35 0 28 0;
#X connect 36 0 35 0;
#X connect 37 0 40 0;
#X connect 38 0 35 0;
#X connect 39 0 35 0;
#X connect 40 0 32 0;
#X connect 41 0 28 1;
#X connect 42 0 0 0;
#X connect 43 0 44 0;
#X connect 44 0 0 0;
#X connect 45 0 29 0;
#X connect 46 0 11 0;
#X connect 47 0 48 0;
#X connect 48 0 14 1;
#X coords 0 -1 1 1 338 41 2 10 10;
#X restore 14 238 pd hihat;
#N canvas 992 40 690 689 hihat 0;
#X obj 82 538 outlet~;
#X obj 377 72 inlet~;
#X obj 10 10 tgl 41 0 empty empty empty 17 7 0 10 -204786 -66577 -1
0 1;
#X obj 52 10 tgl 41 0 empty empty empty 17 7 0 10 -204786 -66577 -1
1 1;
#X obj 94 10 tgl 41 0 empty empty empty 17 7 0 10 -204786 -66577 -1
0 1;
#X obj 136 10 tgl 41 0 empty empty empty 17 7 0 10 -204786 -66577 -1
0 1;
#X obj 178 10 tgl 41 0 empty empty empty 17 7 0 10 -204786 -66577 -1
0 1;
#X obj 220 10 tgl 41 0 empty empty empty 17 7 0 10 -204786 -66577 -1
0 1;
#X obj 262 10 tgl 41 0 empty empty empty 17 7 0 10 -204786 -66577 -1
0 1;
#X obj 304 10 tgl 41 0 empty empty empty 17 7 0 10 -204786 -66577 -1
1 1;
#X obj 377 96 env~;
#X obj 389 167 change;
#X obj 389 191 sel 1;
#X obj 389 215 f 1;
#X obj 389 239 +;
#X obj 424 239 mod 8;
#X obj 10 64 f;
#X obj 51 64 f;
#X obj 94 64 f;
#X obj 135 64 f;
#X obj 178 64 f;
#X obj 219 64 f;
#X obj 262 64 f;
#X obj 303 64 f;
#X obj 384 16 loadbang;
#X msg 384 40 1;
#X obj 424 263 sel 0 1 2 3 4 5 6 7;
#X obj 153 181 sel 1;
#X obj 82 514 *~;
#X obj 153 253 *~;
#X obj 81 443 clip~ -1 1;
#X obj 153 277 *~;
#X obj 153 229 vline~;
#X obj 81 307 noise~;
#X obj 81 331 hip~ 30;
#X obj 81 419 *~;
#X obj 207 270 vline~;
#X obj 207 294 *~;
#X obj 34 282 osc~ 122.8;
#X obj 81 355 lop~ 9500;
#X obj 81 467 hip~ 7000;
#X obj 163 337 bp~ 9500 8;
#X msg 153 205 1 3 \, 0 370 4;
#X msg 207 246 1 3 \, 0 255 3;
#X obj 157 467 lop~ 400;
#X obj 377 120 > 75;
#X obj 520 22 inlet;
#X msg 520 46 0;
#X connect 1 0 10 0;
#X connect 2 0 16 1;
#X connect 3 0 17 1;
#X connect 4 0 18 1;
#X connect 5 0 19 1;
#X connect 6 0 20 1;
#X connect 7 0 21 1;
#X connect 8 0 22 1;
#X connect 9 0 23 1;
#X connect 10 0 45 0;
#X connect 11 0 12 0;
#X connect 12 0 13 0;
#X connect 13 0 14 0;
#X connect 14 0 15 0;
#X connect 15 0 14 1;
#X connect 15 0 26 0;
#X connect 16 0 27 0;
#X connect 17 0 27 0;
#X connect 18 0 27 0;
#X connect 19 0 27 0;
#X connect 20 0 27 0;
#X connect 21 0 27 0;
#X connect 22 0 27 0;
#X connect 23 0 27 0;
#X connect 24 0 25 0;
#X connect 25 0 9 0;
#X connect 25 0 8 0;
#X connect 25 0 7 0;
#X connect 25 0 6 0;
#X connect 25 0 5 0;
#X connect 25 0 4 0;
#X connect 25 0 3 0;
#X connect 25 0 2 0;
#X connect 26 0 16 0;
#X connect 26 1 17 0;
#X connect 26 2 18 0;
#X connect 26 3 19 0;
#X connect 26 4 20 0;
#X connect 26 5 21 0;
#X connect 26 6 22 0;
#X connect 26 7 23 0;
#X connect 27 0 42 0;
#X connect 27 0 43 0;
#X connect 28 0 0 0;
#X connect 29 0 31 0;
#X connect 29 0 31 1;
#X connect 30 0 40 0;
#X connect 30 0 44 0;
#X connect 31 0 28 1;
#X connect 32 0 29 0;
#X connect 32 0 29 1;
#X connect 33 0 34 0;
#X connect 33 0 41 0;
#X connect 34 0 39 0;
#X connect 35 0 30 0;
#X connect 36 0 37 0;
#X connect 36 0 37 1;
#X connect 37 0 35 1;
#X connect 38 0 30 0;
#X connect 39 0 35 0;
#X connect 40 0 28 0;
#X connect 41 0 35 0;
#X connect 42 0 32 0;
#X connect 43 0 36 0;
#X connect 44 0 28 0;
#X connect 45 0 11 0;
#X connect 46 0 47 0;
#X connect 47 0 14 1;
#X coords 0 -1 1 1 338 41 2 10 10;
#X restore 14 280 pd hihat;
#N canvas 992 40 690 689 hihat 0;
#X obj 82 538 outlet~;
#X obj 377 72 inlet~;
#X obj 10 10 tgl 41 0 empty empty empty 17 7 0 10 -204786 -66577 -1
1 1;
#X obj 52 10 tgl 41 0 empty empty empty 17 7 0 10 -204786 -66577 -1
0 1;
#X obj 94 10 tgl 41 0 empty empty empty 17 7 0 10 -204786 -66577 -1
0 1;
#X obj 136 10 tgl 41 0 empty empty empty 17 7 0 10 -204786 -66577 -1
0 1;
#X obj 178 10 tgl 41 0 empty empty empty 17 7 0 10 -204786 -66577 -1
0 1;
#X obj 220 10 tgl 41 0 empty empty empty 17 7 0 10 -204786 -66577 -1
0 1;
#X obj 262 10 tgl 41 0 empty empty empty 17 7 0 10 -204786 -66577 -1
0 1;
#X obj 304 10 tgl 41 0 empty empty empty 17 7 0 10 -204786 -66577 -1
0 1;
#X obj 377 96 env~;
#X obj 389 167 change;
#X obj 389 191 sel 1;
#X obj 389 215 f 1;
#X obj 389 239 +;
#X obj 424 239 mod 8;
#X obj 10 64 f;
#X obj 51 64 f;
#X obj 94 64 f;
#X obj 135 64 f;
#X obj 178 64 f;
#X obj 219 64 f;
#X obj 262 64 f;
#X obj 303 64 f;
#X obj 384 16 loadbang;
#X msg 384 40 1;
#X obj 424 263 sel 0 1 2 3 4 5 6 7;
#X obj 153 181 sel 1;
#X obj 82 514 *~;
#X obj 153 253 *~;
#X obj 81 443 clip~ -1 1;
#X obj 153 277 *~;
#X obj 153 229 vline~;
#X obj 81 307 noise~;
#X obj 81 356 *~;
#X obj 207 270 vline~;
#X obj 207 294 *~;
#X obj 81 467 hip~ 7000;
#X obj 157 467 lop~ 400;
#X obj 34 282 osc~ 56.2;
#X obj 34 235 *~ 20;
#X msg 153 205 1 8 \, 0 395 8;
#X obj 81 331 bp~ 9306 12;
#X msg 207 246 1 9 \, 0 8 9;
#X obj 377 120 > 75;
#X obj 249 539 outlet;
#X obj 34 259 +~ 54;
#X obj 263 299 vline~;
#X obj 35 408 *~;
#X msg 263 275 8 3 \, 1 200 3;
#X obj 81 380 *~ 0.6;
#X obj 520 22 inlet;
#X msg 520 46 0;
#X connect 1 0 10 0;
#X connect 2 0 16 1;
#X connect 3 0 17 1;
#X connect 4 0 18 1;
#X connect 5 0 19 1;
#X connect 6 0 20 1;
#X connect 7 0 21 1;
#X connect 8 0 22 1;
#X connect 9 0 23 1;
#X connect 10 0 44 0;
#X connect 11 0 12 0;
#X connect 12 0 13 0;
#X connect 13 0 14 0;
#X connect 14 0 15 0;
#X connect 15 0 14 1;
#X connect 15 0 26 0;
#X connect 16 0 27 0;
#X connect 17 0 27 0;
#X connect 18 0 27 0;
#X connect 19 0 27 0;
#X connect 20 0 27 0;
#X connect 21 0 27 0;
#X connect 22 0 27 0;
#X connect 23 0 27 0;
#X connect 24 0 25 0;
#X connect 25 0 9 0;
#X connect 25 0 8 0;
#X connect 25 0 7 0;
#X connect 25 0 6 0;
#X connect 25 0 5 0;
#X connect 25 0 4 0;
#X connect 25 0 3 0;
#X connect 25 0 2 0;
#X connect 26 0 16 0;
#X connect 26 1 17 0;
#X connect 26 2 18 0;
#X connect 26 3 19 0;
#X connect 26 4 20 0;
#X connect 26 5 21 0;
#X connect 26 6 22 0;
#X connect 26 7 23 0;
#X connect 27 0 41 0;
#X connect 27 0 43 0;
#X connect 27 0 45 0;
#X connect 27 0 49 0;
#X connect 28 0 0 0;
#X connect 29 0 31 0;
#X connect 29 0 31 1;
#X connect 30 0 37 0;
#X connect 30 0 38 0;
#X connect 31 0 28 1;
#X connect 31 0 40 0;
#X connect 32 0 29 0;
#X connect 32 0 29 1;
#X connect 33 0 42 0;
#X connect 34 0 50 0;
#X connect 35 0 36 0;
#X connect 35 0 36 1;
#X connect 36 0 34 1;
#X connect 37 0 28 0;
#X connect 38 0 28 0;
#X connect 39 0 48 0;
#X connect 40 0 46 0;
#X connect 41 0 32 0;
#X connect 42 0 34 0;
#X connect 43 0 35 0;
#X connect 44 0 11 0;
#X connect 46 0 39 0;
#X connect 47 0 48 1;
#X connect 48 0 30 0;
#X connect 49 0 47 0;
#X connect 50 0 30 0;
#X connect 51 0 52 0;
#X connect 52 0 14 1;
#X coords 0 -1 1 1 338 41 2 10 10;
#X restore 14 322 pd hihat;
#X obj 639 314 *~;
#X obj 674 314 *~;
#X obj 656 226 vline~;
#X obj 352 294 bng 69 250 50 0 empty empty sync 4 33 0 25 -204786 -66577
-66577;
#X obj 656 250 *~;
#X msg 656 204 0 12 \, 1 332 12;
#X connect 1 0 18 0;
#X connect 6 0 19 0;
#X connect 8 0 20 0;
#X connect 10 0 21 0;
#X connect 12 0 22 0;
#X connect 14 0 23 0;
#X connect 18 0 5 0;
#X connect 19 0 2 0;
#X connect 20 0 17 0;
#X connect 21 0 16 0;
#X connect 21 1 27 0;
#X connect 22 0 4 0;
#X connect 23 0 15 0;
#X connect 24 0 26 0;
#X connect 24 0 26 1;
#X connect 25 0 18 1;
#X connect 25 0 19 1;
#X connect 25 0 20 1;
#X connect 25 0 21 1;
#X connect 26 0 22 1;
#X connect 26 0 23 1;
#X connect 27 0 24 0;
#X coords 0 -1 1 1 500 356 2 10 10;
