#N canvas 578 284 1150 697 12;
#X obj 10 10 cnv 5 500 356 empty empty empty 20 12 0 14 -1 -66577 0
;
#X obj 701 561 expr~ 2 * asin( sin( $v1 *(3.1415926535897932384626433832795028841971693993751058209749445923078164062/2)))/3.1415926535897932384626433832795028841971693993751058209749445923078164062
;
#X obj 701 533 *~;
#X obj 810 290 expr~ 1 + ($v1*4);
#X obj 810 267 expr~ (($v1+1)/2 - 1);
#X obj 811 171 abs~;
#X obj 810 221 *~;
#X obj 16 111 hsl 236 83 0.5 24 1 0 empty \$0-folds-r folds\ 12.623
4 40 0 21 -204786 -1 -1 19600 1;
#X obj 719 479 *~;
#X obj 270 111 hsl 236 83 0.0001 10 1 0 empty \$0-amp-r amp\ 0.22998
4 40 0 21 -204786 -1 -1 15800 1;
#X obj 218 600 s \$0-amp-r;
#X obj 218 522 int;
#X obj 199 369 * 1000;
#X obj 199 393 int;
#X obj 199 417 / 1000;
#X obj 199 471 s \$0-folds-r;
#X obj 218 498 * 100000;
#X obj 218 546 / 100000;
#X obj 714 18 loadbang;
#X msg 780 26 1;
#X msg 653 38 1;
#X msg 653 60 0.5;
#X msg 724 47 \; pd dsp 1;
#X obj 733 224 pack 0 4;
#X obj 733 248 line~;
#X obj 339 24 sigsend~;
#X obj 97 24 sigrec~;
#X obj 12 24 sigrec~;
#X obj 182 24 sigrec~;
#X obj 424 24 sigsend~;
#X obj 16 196 hsl 236 83 -50 50 0 0 empty \$0-atten-r atten\ -41.2%
4 40 0 21 -204786 -1 -1 6900 1;
#X obj 360 494 s \$0-atten-r;
#X obj 718 163 pack 0 4;
#X obj 718 187 line~;
#X obj 810 245 +~;
#X obj 718 138 / 100;
#X obj 828 199 *~;
#X msg 360 468 label atten\\\ \$1%;
#X msg 218 574 label amp\\\ \$1;
#X msg 199 445 label folds\\\ \$1;
#X msg 679 95 0;
#X obj 16 280 hsl 236 83 0.1 100 1 0 empty \$0-slew-r slew\ 0.13 4
40 0 21 -204786 -1 -1 1000 1;
#X obj 338 568 int;
#X msg 338 620 label slew\\\ \$1;
#X obj 338 646 s \$0-slew-r;
#X obj 810 343 lagtime~;
#X obj 621 288 lagtime~;
#X obj 99 10 cnv 10 81 12 empty empty fold_cv 3 7 0 11 -262144 -99865
0;
#X obj 184 10 cnv 10 81 12 empty empty amp_cv 3 7 0 11 -262144 -99865
0;
#X obj 14 10 cnv 10 81 12 empty empty audio_input 3 7 0 11 -262144
-99865 0;
#X obj 341 10 cnv 10 81 12 empty empty left_out 3 7 0 11 -262144 -99865
0;
#X obj 426 10 cnv 10 81 12 empty empty right_out 3 7 0 11 -262144 -99865
0;
#X obj 338 543 * 100;
#X obj 338 592 / 100;
#X msg 717 94 0.25;
#X obj 621 261 sig~ 0.25;
#X obj 862 320 sig~ 0.25;
#X obj 270 196 hsl 236 83 -50 50 0 0 empty \$0-amp-atten-r atten\ -51.4%
4 40 0 21 -204786 -1 -1 5700 1;
#X obj 23 611 s \$0-amp-atten-r;
#X msg 23 585 label atten\\\ \$1%;
#X obj 360 419 int;
#X obj 360 395 * 20;
#X obj 360 441 / 10;
#X obj 23 541 int;
#X obj 23 517 * 20;
#X obj 23 563 / 10;
#X obj 815 389 abs~;
#X obj 814 439 *~;
#X obj 737 408 pack 0 4;
#X obj 737 432 line~;
#X obj 722 361 pack 0 4;
#X obj 722 385 line~;
#X obj 814 463 +~;
#X obj 722 336 / 100;
#X obj 832 417 *~;
#X obj 989 286 snapshot~;
#X obj 985 231 tgl 15 0 empty empty empty 17 7 0 10 -262144 -1 -1 1
1;
#X obj 985 251 metro 100;
#X floatatom 989 310 5 0 0 0 - - -;
#X obj 958 343 snapshot~;
#X floatatom 958 367 5 0 0 0 - - -;
#X connect 1 0 25 0;
#X connect 1 0 29 0;
#X connect 2 0 1 0;
#X connect 3 0 45 0;
#X connect 4 0 3 0;
#X connect 5 0 6 0;
#X connect 6 0 34 0;
#X connect 7 0 12 0;
#X connect 8 0 2 0;
#X connect 9 0 16 0;
#X connect 11 0 17 0;
#X connect 12 0 13 0;
#X connect 13 0 14 0;
#X connect 14 0 39 0;
#X connect 14 0 23 0;
#X connect 16 0 11 0;
#X connect 17 0 38 0;
#X connect 17 0 68 0;
#X connect 18 0 20 0;
#X connect 18 0 21 0;
#X connect 18 0 22 0;
#X connect 18 0 40 0;
#X connect 18 0 54 0;
#X connect 20 0 7 0;
#X connect 21 0 9 0;
#X connect 23 0 24 0;
#X connect 24 0 34 1;
#X connect 24 0 36 1;
#X connect 26 0 5 0;
#X connect 27 0 8 0;
#X connect 28 0 46 0;
#X connect 30 0 61 0;
#X connect 32 0 33 0;
#X connect 33 0 36 0;
#X connect 34 0 4 0;
#X connect 35 0 32 0;
#X connect 36 0 6 1;
#X connect 37 0 31 0;
#X connect 38 0 10 0;
#X connect 39 0 15 0;
#X connect 40 0 30 0;
#X connect 41 0 52 0;
#X connect 41 0 55 0;
#X connect 41 0 56 0;
#X connect 42 0 53 0;
#X connect 43 0 44 0;
#X connect 45 0 2 1;
#X connect 46 0 66 0;
#X connect 52 0 42 0;
#X connect 53 0 43 0;
#X connect 54 0 41 0;
#X connect 55 0 46 1;
#X connect 56 0 45 1;
#X connect 57 0 64 0;
#X connect 59 0 58 0;
#X connect 60 0 62 0;
#X connect 61 0 60 0;
#X connect 62 0 37 0;
#X connect 62 0 35 0;
#X connect 63 0 65 0;
#X connect 64 0 63 0;
#X connect 65 0 59 0;
#X connect 65 0 73 0;
#X connect 66 0 67 0;
#X connect 67 0 72 0;
#X connect 68 0 69 0;
#X connect 69 0 72 1;
#X connect 69 0 74 1;
#X connect 70 0 71 0;
#X connect 71 0 74 0;
#X connect 72 0 8 1;
#X connect 72 0 75 0;
#X connect 73 0 70 0;
#X connect 74 0 67 1;
#X connect 75 0 78 0;
#X connect 76 0 77 0;
#X connect 77 0 75 0;
#X connect 77 0 79 0;
#X connect 79 0 80 0;
#X coords 0 -1 1 1 500 356 2 10 10;
