#N canvas 228 405 450 300 12;
#X obj 41 39 inlet;
#X obj 211 39 inlet;
#X obj 63 205 outlet;
#X obj 130 204 outlet;
#X obj 51 115 spigot;
#X obj 41 63 == 1;
#X obj 83 64 == 2;
#X obj 124 115 spigot;
#X obj 150 29 loadbang;
#X msg 150 53 1;
#X connect 0 0 5 0;
#X connect 0 0 6 0;
#X connect 1 0 7 0;
#X connect 1 0 4 0;
#X connect 4 0 2 0;
#X connect 5 0 4 1;
#X connect 6 0 7 1;
#X connect 7 0 3 0;
#X connect 8 0 9 0;
#X connect 9 0 4 1;
