#N canvas 924 357 775 566 12;
#X obj 24 24 inlet~ audio;
#X obj 159 24 inlet recordbang;
#X obj 293 25 inlet recordnumber;
#X obj 437 25 inlet playnumber;
#X obj 24 464 outlet~;
#N canvas 1248 123 595 536 hann-window 0;
#N canvas 0 0 450 300 (subpatch) 0;
#X array \$1-hann 2048 float 0;
#X coords 0 1 2047 0 300 100 1 0 0;
#X restore 148 395 graph;
#X obj 365 185 osc~;
#X obj 365 210 *~ -0.5;
#X obj 365 234 +~ 0.5;
#X obj 213 206 samplerate~;
#X obj 105 252 swap;
#X obj 105 276 /;
#X obj 124 149 t f b f;
#X msg 213 156 resize \$1;
#X msg 390 155 0;
#X obj 317 151 t f b;
#X text 94 21 calculate Hann window table (variable window size) and
constants window-hz (fundamental frequency of analysis) \, window-sec
and window-msec (analysis window size in seconds and msec)., f 56
;
#X obj 124 95 loadbang;
#X msg 124 119 2048;
#X obj 317 123 r \$1-window-hz;
#X obj 213 180 s \$1-hann;
#X obj 105 300 s \$1-window-hz;
#X obj 348 277 tabwrite~ \$1-hann;
#X connect 1 0 2 0;
#X connect 2 0 3 0;
#X connect 3 0 17 0;
#X connect 4 0 5 1;
#X connect 5 0 6 0;
#X connect 5 1 6 1;
#X connect 6 0 16 0;
#X connect 7 0 5 0;
#X connect 7 1 4 0;
#X connect 7 2 8 0;
#X connect 8 0 15 0;
#X connect 9 0 1 1;
#X connect 10 0 1 0;
#X connect 10 1 9 0;
#X connect 10 1 17 0;
#X connect 12 0 13 0;
#X connect 13 0 7 0;
#X connect 14 0 10 0;
#X restore 592 403 pd hann-window;
#X obj 575 24 inlet reset;
#X msg 196 96 all bang;
#X obj 437 49 change;
#X obj 175 463 outlet~;
#X obj 24 125 clone jumsubpatch 8 \$1;
#X obj 159 48 s \$1-record;
#X obj 437 71 s \$1-playnum;
#X obj 293 49 s \$1-recnum;
#X obj 366 199 abs~;
#X obj 366 223 snapshot~;
#X obj 366 270 sel 0 1;
#X obj 348 397 /~;
#X obj 366 367 line~;
#X obj 23 186 delwrite~ \$0-compL 20;
#X obj 23 253 delread4~ \$0-compL 20;
#X obj 174 214 delwrite~ \$0-compR 20;
#X obj 174 281 delread4~ \$0-compR 20;
#X obj 503 202 abs~;
#X obj 503 226 snapshot~;
#X obj 503 303 sel 0 1;
#X obj 485 400 /~;
#X obj 503 370 line~;
#X obj 503 280 > 0.6;
#X obj 366 247 > 0.6;
#X obj 347 112 loadbang;
#X msg 347 136 1;
#X obj 347 159 metro 10;
#X msg 412 343 5 20;
#X msg 549 346 5 20;
#X msg 366 343 1 100;
#X msg 503 346 1 100;
#X connect 0 0 10 0;
#X connect 1 0 11 0;
#X connect 2 0 13 0;
#X connect 3 0 8 0;
#X connect 6 0 7 0;
#X connect 7 0 10 1;
#X connect 8 0 12 0;
#X connect 10 0 19 0;
#X connect 10 0 14 0;
#X connect 10 1 21 0;
#X connect 10 1 23 0;
#X connect 14 0 15 0;
#X connect 15 0 29 0;
#X connect 16 0 35 0;
#X connect 16 1 33 0;
#X connect 17 0 4 0;
#X connect 18 0 17 1;
#X connect 20 0 17 0;
#X connect 22 0 26 0;
#X connect 23 0 24 0;
#X connect 24 0 28 0;
#X connect 25 0 36 0;
#X connect 25 1 34 0;
#X connect 26 0 9 0;
#X connect 27 0 26 1;
#X connect 28 0 25 0;
#X connect 29 0 16 0;
#X connect 30 0 31 0;
#X connect 31 0 32 0;
#X connect 32 0 15 0;
#X connect 32 0 24 0;
#X connect 33 0 18 0;
#X connect 34 0 27 0;
#X connect 35 0 18 0;
#X connect 36 0 27 0;
