#N canvas 895 41 928 735 12;
#X obj 412 517 tabread4~ \$3-hann;
#X obj 219 421 r \$3-samprate;
#X obj 190 445 /;
#X text 303 294 random window size;
#X obj 205 660 outlet~;
#X obj 137 550 tabread4~ \$3-\$2-rec;
#X obj 205 576 *~;
#X obj 212 294 f, f 2;
#X obj 137 525 line~;
#X obj 412 491 line~;
#X obj 137 5 inlet spigot;
#X obj 328 6 inlet loadingnew;
#X obj 205 635 *~;
#X obj 328 179 line~;
#X msg 343 119 1 3;
#X obj 396 41 bng 15 250 50 0 empty empty empty 17 7 0 10 -262144 -1
-1;
#X msg 328 155 0 40;
#X obj 137 294 metro 100;
#X obj 137 246 del;
#X msg 137 270 1;
#X msg 102 96 1;
#X obj 102 73 del;
#X obj 102 120 t b f;
#X obj 137 345 + 4000;
#X obj 137 151 spigot 1;
#X msg 190 123 0;
#X text 17 151 If playing \, prevent retrigger., f 14;
#X obj 343 95 del 290;
#X text 398 118 Mute output until loading complete.;
#X obj 137 31 t b f;
#X msg 182 93 stop;
#X obj 233 18 sel 0;
#X msg 412 467 0 \, 2046 \$1;
#X obj 137 445 - 2;
#X obj 333 332 random 2999;
#X obj 333 356 + 1;
#X msg 137 501 1 \, \$1 \$2;
#X obj 137 477 pack f f;
#X obj 102 47 + 10;
#X obj 137 198 t b b;
#X obj 233 66 del;
#X msg 233 90 0;
#X obj 137 224 random 200;
#X obj 233 42 random 3500;
#X obj 137 322 random 6025;
#X obj 190 414 *;
#X obj 223 389 snapshot~;
#X obj 137 369 t f f b;
#X obj 222 357 r~ \$3-detune;
#X connect 0 0 6 1;
#X connect 1 0 2 1;
#X connect 2 0 7 0;
#X connect 2 0 32 0;
#X connect 2 0 37 1;
#X connect 2 0 38 0;
#X connect 5 0 6 0;
#X connect 6 0 12 0;
#X connect 7 0 17 1;
#X connect 8 0 5 0;
#X connect 9 0 0 0;
#X connect 10 0 29 0;
#X connect 11 0 15 0;
#X connect 11 0 16 0;
#X connect 11 0 27 0;
#X connect 12 0 4 0;
#X connect 13 0 12 1;
#X connect 14 0 13 0;
#X connect 16 0 13 0;
#X connect 17 0 34 0;
#X connect 17 0 44 0;
#X connect 18 0 19 0;
#X connect 19 0 17 0;
#X connect 20 0 22 0;
#X connect 21 0 20 0;
#X connect 22 0 24 0;
#X connect 22 1 24 1;
#X connect 23 0 47 0;
#X connect 24 0 39 0;
#X connect 25 0 24 1;
#X connect 27 0 14 0;
#X connect 29 0 24 0;
#X connect 29 1 31 0;
#X connect 30 0 21 0;
#X connect 30 0 17 0;
#X connect 30 0 18 0;
#X connect 31 0 43 0;
#X connect 31 1 24 1;
#X connect 32 0 9 0;
#X connect 33 0 37 0;
#X connect 34 0 35 0;
#X connect 35 0 5 1;
#X connect 36 0 8 0;
#X connect 37 0 36 0;
#X connect 38 0 21 0;
#X connect 39 0 42 0;
#X connect 39 1 25 0;
#X connect 40 0 30 0;
#X connect 40 0 41 0;
#X connect 41 0 24 1;
#X connect 42 0 18 0;
#X connect 43 0 40 0;
#X connect 44 0 23 0;
#X connect 45 0 2 0;
#X connect 46 0 45 1;
#X connect 47 0 33 0;
#X connect 47 1 45 0;
#X connect 47 2 46 0;
#X connect 48 0 46 0;
