#N canvas 1082 60 800 1024 12;
#X obj 148 23 r \$2-record;
#X obj 202 97 spigot;
#X obj 238 57 select \$1;
#X obj 238 23 r \$2-recnum;
#X obj 47 23 inlet~;
#X obj 205 745 outlet~;
#X obj 118 170 del 40;
#X obj 73 213 tabwrite~ \$2-\$1-rec;
#X msg 358 176 all \$1;
#X msg 516 187 all bang;
#X obj 613 70 loadbang;
#X obj 613 94 samplerate~;
#X obj 613 118 / 1000;
#X obj 590 56 bng 15 250 50 0 empty empty empty 17 7 0 10 -262144 -1
-1;
#X obj 613 143 s \$2-samprate;
#X obj 356 77 select \$1;
#X msg 356 101 1;
#X msg 416 101 0;
#X msg 490 99 0;
#X obj 356 23 r \$2-playnum;
#X obj 465 20 inlet reset;
#X obj 599 196 s \$2-\$1-rec;
#X msg 599 172 const 0;
#X obj 214 213 s \$2-\$1-rec;
#X msg 214 192 normalize;
#X obj 269 745 outlet~;
#X obj 453 249 random 1800;
#X obj 473 273 t f f;
#X obj 474 299 -;
#X obj 453 403 pack 0 f;
#X obj 453 427 line 0 1;
#X obj 453 451 mod 360;
#X obj 474 323 abs;
#X obj 474 377 * 30;
#X obj 567 272 t f f;
#X obj 568 298 -;
#X obj 547 402 pack 0 f;
#X obj 568 322 abs;
#X obj 547 248 random 1000;
#X obj 568 376 * 20;
#X obj 547 426 line 0 1;
#X obj 547 474 pow 0.5;
#X obj 202 582 DopplerPanFx;
#X obj 417 755 writesf~ 2;
#X msg 433 675 open \$1-\$2-stereo.wav \, start;
#X obj 433 584 select 1 0;
#X msg 466 711 stop;
#X obj 433 612 f \$2;
#X obj 433 636 pack f \$1;
#X obj 433 560 r \$2-record2file;
#X obj 356 47 change;
#X obj 547 520 + 0.5;
#X obj 547 450 / 1000;
#X obj 547 498 * 0.5;
#X obj 214 169 del 251;
#X obj 566 34 table \$2-\$1-rec 11025;
#X obj 358 218 clone jumgrain~ 10 \$1 \$2 -s 0;
#X obj 358 252 /~ 100;
#X connect 0 0 1 1;
#X connect 1 0 6 0;
#X connect 1 0 9 0;
#X connect 1 0 54 0;
#X connect 2 0 1 0;
#X connect 3 0 2 0;
#X connect 4 0 7 0;
#X connect 6 0 7 0;
#X connect 8 0 56 0;
#X connect 9 0 56 1;
#X connect 10 0 11 0;
#X connect 10 0 18 0;
#X connect 10 0 22 0;
#X connect 11 0 12 0;
#X connect 12 0 14 0;
#X connect 13 0 11 0;
#X connect 15 0 16 0;
#X connect 15 0 26 0;
#X connect 15 0 38 0;
#X connect 15 1 17 0;
#X connect 16 0 8 0;
#X connect 17 0 8 0;
#X connect 18 0 8 0;
#X connect 19 0 50 0;
#X connect 20 0 18 0;
#X connect 20 0 22 0;
#X connect 22 0 21 0;
#X connect 24 0 23 0;
#X connect 26 0 27 0;
#X connect 26 0 29 0;
#X connect 27 0 28 1;
#X connect 27 1 28 0;
#X connect 28 0 32 0;
#X connect 29 0 30 0;
#X connect 30 0 31 0;
#X connect 31 0 42 4;
#X connect 32 0 33 0;
#X connect 33 0 29 1;
#X connect 34 0 35 1;
#X connect 34 1 35 0;
#X connect 35 0 37 0;
#X connect 36 0 40 0;
#X connect 37 0 39 0;
#X connect 38 0 34 0;
#X connect 38 0 36 0;
#X connect 39 0 36 1;
#X connect 40 0 52 0;
#X connect 41 0 53 0;
#X connect 42 0 5 0;
#X connect 42 0 43 0;
#X connect 42 1 25 0;
#X connect 42 1 43 1;
#X connect 44 0 43 0;
#X connect 45 0 47 0;
#X connect 45 1 46 0;
#X connect 46 0 43 0;
#X connect 47 0 48 0;
#X connect 48 0 44 0;
#X connect 49 0 45 0;
#X connect 50 0 15 0;
#X connect 51 0 42 3;
#X connect 52 0 41 0;
#X connect 53 0 51 0;
#X connect 54 0 24 0;
#X connect 56 0 57 0;
#X connect 57 0 42 0;
