#N canvas 103 23 450 430 10;
#X obj 253 124 log;
#X msg 253 102 0.001;
#X obj 253 61 loadbang;
#X obj 300 108 samplerate~;
#X obj 253 164 /;
#X obj 253 81 t b b;
#X obj 253 143 * 1000;
#X obj 359 60 inlet~;
#X obj 266 217 /~;
#X obj 249 187 sig~;
#X obj 266 238 exp~;
#X obj 143 173 inlet~;
#X obj 239 313 *~;
#X obj 258 382 outlet~;
#X obj 219 224 sig~ 1;
#X obj 263 286 -~;
#X obj 249 352 rpole~;
#X connect 0 0 6 0;
#X connect 1 0 0 0;
#X connect 2 0 5 0;
#X connect 3 0 4 1;
#X connect 4 0 9 0;
#X connect 5 0 1 0;
#X connect 5 1 3 0;
#X connect 6 0 4 0;
#X connect 7 0 8 1;
#X connect 8 0 10 0;
#X connect 9 0 8 0;
#X connect 10 0 15 1;
#X connect 10 0 16 1;
#X connect 11 0 12 0;
#X connect 12 0 16 0;
#X connect 14 0 15 0;
#X connect 15 0 12 1;
#X connect 16 0 13 0;
