#N canvas 292 499 1170 421 12;
#X obj 240 71 change;
#X obj 101 215 int;
#X obj 101 101 nbx 3 83 4 44 0 0 empty empty empty 0 -8 0 15 -262144
-1 -1 4 256;
#X obj 101 191 / 4;
#X obj 100 100 cnv 20 85 85 empty empty empty 2 18 0 28 -1 -66577 0
;
#X obj 102 102 cnv 20 81 81 empty \$0-pitch-r 1 0 44 0 68 -204786 -1
0;
#X obj 240 305 s \$0-pitch-r;
#X obj 485 296 outlet number;
#X obj 485 17 inlet;
#X msg 240 131 label \$1;
#X obj 240 98 makefilename %i;
#X obj 485 41 int;
#X obj 455 85 * 4;
#X msg 455 109 set \$1;
#X msg 310 277 range \$1 \$2;
#X obj 310 150 loadbang;
#X obj 310 174 t b b;
#X obj 345 196 f \$2;
#X obj 310 196 f \$1;
#X obj 310 220 * 4;
#X obj 345 221 * 4;
#X obj 310 248 pack;
#X connect 0 0 10 0;
#X connect 0 0 7 0;
#X connect 1 0 0 0;
#X connect 2 0 3 0;
#X connect 3 0 1 0;
#X connect 8 0 11 0;
#X connect 9 0 6 0;
#X connect 10 0 9 0;
#X connect 11 0 7 0;
#X connect 11 0 12 0;
#X connect 11 0 10 0;
#X connect 12 0 13 0;
#X connect 13 0 2 0;
#X connect 14 0 2 0;
#X connect 15 0 16 0;
#X connect 16 0 18 0;
#X connect 16 1 17 0;
#X connect 17 0 20 0;
#X connect 18 0 19 0;
#X connect 19 0 21 0;
#X connect 19 0 2 0;
#X connect 20 0 21 1;
#X connect 21 0 14 0;
#X coords 0 -1 1 1 85 85 2 100 100;
