#N canvas 0 50 805 687 12;
#X obj 60 201 osc~;
#X obj 61 127 *~ 0.2;
#X obj 60 152 *~;
#X obj 60 176 +~;
#X obj 120 201 osc~;
#X obj 121 127 *~ 0.2;
#X obj 120 152 *~;
#X obj 120 176 +~;
#X obj 180 201 osc~;
#X obj 181 127 *~ 0.2;
#X obj 180 152 *~;
#X obj 180 176 +~;
#X obj 60 225 dac~ 1;
#X obj 120 225 dac~ 2;
#X obj 180 225 dac~ 3;
#X obj 240 201 osc~;
#X obj 241 127 *~ 0.2;
#X obj 240 152 *~;
#X obj 240 176 +~;
#X obj 240 225 dac~ 4;
#X obj 563 284 delwrite~ \$0loop 5;
#X obj 41 100 delread4~ \$0loop 0;
#X obj 372 334 +~;
#X obj 432 334 +~;
#X obj 372 280 *~ 0.1;
#X obj 432 280 *~ 0.1;
#X obj 389 308 *~ 0.9;
#X obj 450 308 *~ 0.9;
#X obj 492 334 +~;
#X obj 492 280 *~ 0.1;
#X obj 510 308 *~ 0.9;
#X obj 310 334 +~;
#X obj 310 280 *~ 0.1;
#X obj 327 308 *~ 0.9;
#X obj 107 32 r osc1;
#X obj 157 32 r osc2;
#X obj 207 32 r osc3;
#X obj 257 32 r osc4;
#X obj 311 366 dac~ 5;
#X obj 372 366 dac~ 6;
#X obj 432 366 dac~ 7;
#X obj 492 366 dac~ 8;
#X obj 407 42 loadbang;
#X msg 407 66 \; pd dsp 1 \;;
#X connect 0 0 12 0;
#X connect 0 0 5 0;
#X connect 0 0 24 0;
#X connect 0 0 33 0;
#X connect 1 0 2 0;
#X connect 2 0 3 0;
#X connect 3 0 0 0;
#X connect 4 0 13 0;
#X connect 4 0 9 0;
#X connect 4 0 25 0;
#X connect 4 0 26 0;
#X connect 5 0 6 0;
#X connect 6 0 7 0;
#X connect 7 0 4 0;
#X connect 8 0 14 0;
#X connect 8 0 16 0;
#X connect 8 0 27 0;
#X connect 8 0 29 0;
#X connect 9 0 10 0;
#X connect 10 0 11 0;
#X connect 11 0 8 0;
#X connect 15 0 19 0;
#X connect 15 0 20 0;
#X connect 15 0 30 0;
#X connect 16 0 17 0;
#X connect 17 0 18 0;
#X connect 18 0 15 0;
#X connect 21 0 1 0;
#X connect 21 0 32 0;
#X connect 22 0 39 0;
#X connect 23 0 40 0;
#X connect 24 0 22 0;
#X connect 25 0 23 0;
#X connect 26 0 22 1;
#X connect 27 0 23 1;
#X connect 28 0 41 0;
#X connect 29 0 28 0;
#X connect 30 0 28 1;
#X connect 31 0 38 0;
#X connect 32 0 31 0;
#X connect 33 0 31 1;
#X connect 34 0 2 1;
#X connect 34 0 3 1;
#X connect 35 0 6 1;
#X connect 35 0 7 1;
#X connect 36 0 7 1;
#X connect 36 0 10 1;
#X connect 36 0 11 1;
#X connect 37 0 17 1;
#X connect 37 0 18 1;
#X connect 42 0 43 0;
