#N canvas 952 97 514 630 10;
#X obj 9 43 inlet~;
#X obj 199 43 inlet;
#X obj 272 43 inlet;
#X obj 347 65 inlet;
#X obj 159 438 cnv 15 300 140 empty empty empty 20 12 0 14 -1 -66577
0;
#X obj 164 443 cnv 15 290 130 empty empty empty 20 12 0 14 -262144
-66577 0;
#X text 272 445 PANCIRCLE~;
#X text 230 470 An incoming signal is;
#X text 218 486 attenuated according to;
#X text 212 515 relation to a loudspeaker;
#X text 211 501 it's virtual placement in;
#X text 6 13 incoming;
#X text 11 25 signal;
#X text 200 13 loud;
#X text 191 25 speaker;
#X text 273 13 sound;
#X text 260 25 location;
#X text 338 27 distance;
#X text 349 38 from;
#X text 344 48 center;
#X text 205 60 (0-360);
#X text 280 60 (0-360);
#X obj 148 80 loadbang;
#X obj 105 43 inlet;
#X text 84 13 exponential;
#X text 98 25 panning;
#X obj 105 201 max 0;
#X obj 60 290 pow 0.5;
#X obj 61 449 line~;
#X obj 10 472 *~;
#X obj 10 497 outlet~;
#X text 371 554 by S. Burt;
#X obj 148 104 f \$1;
#N canvas 405 269 429 527 placement 0;
#X obj 189 21 inlet side1;
#X obj 273 21 inlet side2;
#X obj 133 152 t b b b;
#X obj 133 218 f;
#X obj 205 454 outlet;
#X obj 173 216 pow 2;
#X obj 257 217 pow 2;
#X obj 220 272 *;
#X obj 220 319 +;
#X obj 204 340 +;
#X obj 220 247 * -2;
#X obj 204 298 *;
#X obj 7 78 -;
#X obj 39 78 -;
#X obj 133 253 cos;
#X obj 7 21 inlet speaker;
#X obj 105 21 inlet sound;
#X obj 173 178 f 1;
#X obj 204 363 min 1;
#X obj 204 382 - 1;
#X obj 204 401 abs;
#X obj 257 178 f 1;
#X obj 7 124 zexy/deg2rad;
#X connect 0 0 2 0;
#X connect 0 0 17 1;
#X connect 1 0 2 0;
#X connect 1 0 21 1;
#X connect 2 0 3 0;
#X connect 2 1 17 0;
#X connect 2 2 21 0;
#X connect 3 0 14 0;
#X connect 5 0 8 0;
#X connect 6 0 8 1;
#X connect 7 0 11 1;
#X connect 8 0 9 1;
#X connect 9 0 18 0;
#X connect 10 0 7 0;
#X connect 11 0 9 0;
#X connect 12 0 22 0;
#X connect 13 0 22 0;
#X connect 14 0 11 0;
#X connect 15 0 13 1;
#X connect 15 0 12 0;
#X connect 16 0 13 0;
#X connect 16 0 12 1;
#X connect 17 0 10 0;
#X connect 17 0 5 0;
#X connect 18 0 19 0;
#X connect 19 0 20 0;
#X connect 20 0 4 0;
#X connect 21 0 6 0;
#X connect 21 0 7 1;
#X connect 22 0 2 0;
#X connect 22 0 3 1;
#X restore 199 142 pd placement;
#X obj 60 264 f;
#X obj 60 246 bng 15 250 50 0 empty empty empty 0 -6 0 8 -262144 -1
-1;
#X floatatom 132 316 5 0 0 0 - - -, f 5;
#X floatatom 216 168 5 0 0 0 - - -, f 5;
#X floatatom 106 329 8 0 0 0 - - -, f 8;
#X obj 199 106 mod 360;
#X obj 272 76 mod 360;
#X obj 414 68 inlet;
#X text 405 30 distance;
#X text 416 41 from;
#X text 411 51 center;
#X text 342 13 sound;
#X text 409 17 speaker;
#X obj 199 190 max 1e-05;
#X msg 61 430 \$1 50;
#X connect 0 0 29 0;
#X connect 1 0 39 0;
#X connect 2 0 40 0;
#X connect 3 0 33 3;
#X connect 22 0 32 0;
#X connect 23 0 35 0;
#X connect 23 0 26 0;
#X connect 26 0 27 1;
#X connect 26 0 36 0;
#X connect 27 0 38 0;
#X connect 27 0 48 0;
#X connect 28 0 29 1;
#X connect 29 0 30 0;
#X connect 32 0 33 0;
#X connect 33 0 37 0;
#X connect 33 0 47 0;
#X connect 34 0 27 0;
#X connect 35 0 34 0;
#X connect 39 0 33 0;
#X connect 40 0 33 1;
#X connect 41 0 33 2;
#X connect 47 0 34 1;
#X connect 47 0 27 0;
#X connect 48 0 28 0;
