#N canvas 670 98 902 725 12;
#X declare -lib Gem;
#X obj 507 219 loadbang;
#X msg 507 315 draw point;
#X obj 496 168 declare -lib Gem;
#X msg 527 334 draw line;
#X obj 389 434 gemhead;
#X obj 534 455 *~;
#X obj 561 455 *~;
#X obj 177 124 vsl 35 128 0 8.5 0 0 empty empty empty 0 -9 0 10 -228856
-1 -1 2988 1;
#X msg 581 210 destroy;
#X obj 507 482 scopeXYZ~ 2048;
#X msg 220 385 length \$1;
#X obj 139 124 vsl 35 128 0 8 0 0 empty empty empty 0 -9 0 10 -228856
-1 -1 9525 1;
#X obj 135 294 int;
#X obj 135 318 expr pow(2 \, $f1+8);
#X obj 101 122 vradio 35 1 0 3 empty empty empty 0 -8 0 10 -228856
-1 -1 0;
#X obj 527 291 route 0 1 2 3 4;
#X msg 544 354 draw fill;
#X obj 389 458 color 0 1 0;
#X obj 239 122 vsl 25 128 100 1000 0 0 empty empty empty 0 -9 0 10
-228856 -1 -1 0 1;
#X msg 280 195 dimen \$1 \$1;
#X obj 111 229 tgl 25 0 empty empty empty 17 7 0 10 -228856 -1 -1 0
1;
#X obj 690 169 select 0 1;
#X msg 690 191 0 \, destroy;
#X msg 723 213 create \, 1;
#X obj 440 348 sig~;
#X msg 483 250 2, f 2;
#X floatatom 79 312 5 0 0 0 - - -;
#X msg 464 279 6;
#X obj 527 261 gemwin 30;
#X msg 527 240 dimen 480 480 \, offset 0 0 \, create \, 1;
#X obj 381 14 adc~ 1;
#X obj 431 43 adc~ 2;
#X obj 475 70 adc~ 3;
#X obj 447 15 inlet~;
#X obj 497 15 inlet~;
#X connect 0 0 29 0;
#X connect 0 0 1 0;
#X connect 0 0 25 0;
#X connect 0 0 27 0;
#X connect 1 0 9 0;
#X connect 3 0 9 0;
#X connect 4 0 17 0;
#X connect 5 0 9 1;
#X connect 6 0 9 2;
#X connect 7 0 24 0;
#X connect 8 0 28 0;
#X connect 10 0 9 0;
#X connect 11 0 12 0;
#X connect 12 0 13 0;
#X connect 12 0 26 0;
#X connect 13 0 10 0;
#X connect 14 0 15 0;
#X connect 15 0 1 0;
#X connect 15 1 3 0;
#X connect 15 2 16 0;
#X connect 16 0 9 0;
#X connect 17 0 9 0;
#X connect 18 0 19 0;
#X connect 19 0 28 0;
#X connect 20 0 21 0;
#X connect 21 0 22 0;
#X connect 21 1 23 0;
#X connect 22 0 28 0;
#X connect 23 0 28 0;
#X connect 24 0 5 1;
#X connect 24 0 6 1;
#X connect 25 0 7 0;
#X connect 27 0 11 0;
#X connect 29 0 28 0;
#X connect 30 0 5 0;
#X connect 31 0 6 0;
#X connect 32 0 9 3;
#X connect 33 0 5 0;
#X connect 34 0 6 0;
#X coords 0 -1 1 1 114 160 1 100 100;
