#N canvas 618 93 675 705 10;
#N canvas 0 50 450 300 (subpatch) 0;
#X array \$0-_ 114 float 2;
#X coords 0 0 114 1 114 114 2 0 0;
#X restore 13 26 graph;
#X obj 271 513 s \$0-_;
#X obj 271 492 pack f f;
#X obj 271 235 snapshot~;
#X obj 365 247 snapshot~;
#X obj 271 345 + 0;
#X obj 271 288 + 1;
#X obj 307 315 + 1;
#X obj 271 372 int;
#X text 344 315 50=0;
#X obj 307 451 t b f;
#X obj 365 37 t b b;
#X obj 365 -27 loadbang;
#X floatatom 133 243 5 0 0 0 - - -;
#X msg 79 397 bounds 0 0 \$1 1 \, resize \$1;
#X obj 156 268 / 2;
#X obj 271 315 * 100;
#X obj 384 -7 tgl 15 0 empty empty empty 17 7 0 10 -262144 -1 -1 0
1;
#N canvas 0 50 450 300 (subpatch) 0;
#X array \$0-_2 114 float 2;
#X coords 0 0 114 1 114 114 2 0 0;
#X restore 13 25 graph;
#X obj 437 572 pack f f;
#X obj 437 305 snapshot~;
#X obj 531 317 snapshot~;
#X obj 437 415 + 0;
#X obj 437 358 + 1;
#X obj 473 385 + 1;
#X obj 437 442 int;
#X text 510 385 50=0;
#X obj 473 532 t b f;
#X obj 437 385 * 100;
#X obj 437 593 s \$0-_2;
#X obj 271 472 change;
#X obj 437 553 change;
#X msg 175 224 114;
#X obj 307 373 + 0;
#X obj 307 393 int;
#X obj 307 354 * 100;
#X obj 307 412 change;
#X obj 473 434 + 0;
#X obj 473 461 int;
#X obj 473 404 * 100;
#X obj 473 502 change;
#X obj 365 13 metro 0.01;
#X obj 132 45 hradio 15 1 0 5 empty empty empty 0 -8 0 10 -228856 -128992
-1 1;
#X text 151 44 1;
#X text 166 44 2;
#X text 181 44 3;
#X text 196 44 4;
#X obj 132 65 hradio 15 1 0 5 empty empty empty 0 -8 0 10 -228856 -128992
-1 1;
#X text 151 64 1;
#X text 166 64 2;
#X text 181 64 3;
#X text 196 64 4;
#X text 128 27 inputs;
#X obj 132 85 hradio 15 1 0 5 empty empty empty 0 -8 0 10 -228856 -128992
-1 1;
#X text 151 84 1;
#X text 166 84 2;
#X text 181 84 3;
#X text 196 84 4;
#X obj 132 105 hradio 15 1 0 5 empty empty empty 0 -8 0 10 -228856
-128992 -1 1;
#X text 151 104 1;
#X text 166 104 2;
#X text 181 104 3;
#X text 196 104 4;
#X obj 271 194 adc~ 0;
#X obj 356 193 adc~ 0;
#X obj 517 193 adc~ 0;
#X obj 437 193 adc~ 0;
#X msg 271 171 set \$1;
#X msg 356 171 set \$1;
#X msg 437 171 set \$1;
#X msg 517 171 set \$1;
#X connect 2 0 1 0;
#X connect 3 0 6 0;
#X connect 4 0 7 0;
#X connect 5 0 8 0;
#X connect 6 0 16 0;
#X connect 7 0 35 0;
#X connect 8 0 30 0;
#X connect 10 0 2 0;
#X connect 10 1 2 1;
#X connect 11 0 4 0;
#X connect 11 0 21 0;
#X connect 11 1 3 0;
#X connect 11 1 20 0;
#X connect 12 0 32 0;
#X connect 12 0 41 0;
#X connect 13 0 14 0;
#X connect 13 0 15 0;
#X connect 14 0 1 0;
#X connect 14 0 29 0;
#X connect 15 0 16 1;
#X connect 15 0 28 1;
#X connect 15 0 35 1;
#X connect 15 0 39 1;
#X connect 16 0 5 0;
#X connect 17 0 41 0;
#X connect 19 0 29 0;
#X connect 20 0 23 0;
#X connect 21 0 24 0;
#X connect 22 0 25 0;
#X connect 23 0 28 0;
#X connect 24 0 39 0;
#X connect 25 0 31 0;
#X connect 27 0 19 0;
#X connect 27 1 19 1;
#X connect 28 0 22 0;
#X connect 30 0 2 0;
#X connect 31 0 19 0;
#X connect 32 0 13 0;
#X connect 33 0 34 0;
#X connect 34 0 36 0;
#X connect 35 0 33 0;
#X connect 36 0 10 0;
#X connect 37 0 38 0;
#X connect 38 0 40 0;
#X connect 39 0 37 0;
#X connect 40 0 27 0;
#X connect 41 0 11 0;
#X connect 42 0 67 0;
#X connect 47 0 68 0;
#X connect 53 0 69 0;
#X connect 58 0 70 0;
#X connect 63 0 3 0;
#X connect 64 0 4 0;
#X connect 65 0 21 0;
#X connect 66 0 20 0;
#X connect 67 0 63 0;
#X connect 68 0 64 0;
#X connect 69 0 66 0;
#X connect 70 0 65 0;
#X coords 0 1 101 0 200 116 2 12 25;
