#N canvas 177 536 1170 421 12;
#X obj 240 71 change;
#X obj 101 215 int;
#X msg 240 140 label -;
#X msg 248 115 0;
#X obj 101 101 nbx 3 83 -5 400 0 0 empty empty empty 0 -8 0 14 -262144
-1 -1 0 256;
#X obj 101 191 / 4;
#X obj 101 101 cnv 20 81 83 empty empty empty 2 18 0 28 -1 -66577 0
;
#X obj 102 102 cnv 20 79 81 empty \$0-pitch-r - 4 40 0 40 -204786 -66577
0;
#X obj 261 379 s \$0-pitch-r;
#N canvas 1154 39 450 533 lettername 0;
#X obj 28 9 inlet;
#X floatatom 262 117 5 0 0 0 - - -;
#X msg 28 122 C;
#X msg 38 144 Db;
#X msg 59 122 D;
#X msg 69 144 Eb;
#X msg 91 122 E;
#X msg 101 144 F;
#X msg 132 144 G;
#X msg 164 144 A;
#X msg 185 122 Bb;
#X msg 195 144 B;
#X obj 28 97 sel 0 1 2 3 4 5 6 7 8 9 10 11;
#X obj 262 93 div 12;
#X obj 28 63 mod 12;
#X msg 43 337 label \$1;
#X obj 43 367 outlet;
#X obj 43 229 symbol;
#X msg 43 277 set \$1;
#X obj 43 301 makefilename;
#X obj 28 33 t f f;
#X obj 43 253 makefilename %s%%i;
#X msg 122 122 Gb;
#X msg 154 122 Ab;
#X connect 0 0 20 0;
#X connect 2 0 17 0;
#X connect 3 0 17 0;
#X connect 4 0 17 0;
#X connect 5 0 17 0;
#X connect 6 0 17 0;
#X connect 7 0 17 0;
#X connect 8 0 17 0;
#X connect 9 0 17 0;
#X connect 10 0 17 0;
#X connect 11 0 17 0;
#X connect 12 0 2 0;
#X connect 12 1 3 0;
#X connect 12 2 4 0;
#X connect 12 3 5 0;
#X connect 12 4 6 0;
#X connect 12 5 7 0;
#X connect 12 6 22 0;
#X connect 12 7 8 0;
#X connect 12 8 23 0;
#X connect 12 9 9 0;
#X connect 12 10 10 0;
#X connect 12 11 11 0;
#X connect 13 0 1 0;
#X connect 13 0 19 0;
#X connect 14 0 12 0;
#X connect 15 0 16 0;
#X connect 17 0 21 0;
#X connect 18 0 19 0;
#X connect 19 0 15 0;
#X connect 20 0 13 0;
#X connect 20 1 14 0;
#X connect 21 0 18 0;
#X connect 22 0 17 0;
#X connect 23 0 17 0;
#X restore 286 177 pd lettername;
#X obj 240 92 moses 0;
#X obj 330 287 outlet number;
#X obj 485 17 inlet;
#X obj 330 259 f;
#X obj 330 231 spigot;
#X msg 299 116 1;
#X obj 485 40 sel \$1;
#X msg 552 257 color #c4fcc4 -1 -1;
#X msg 490 297 color #b4e4b4 -1 -1;
#X msg 524 63 bang;
#X obj 171 8 r \$2-pitch\$1-r;
#X obj 171 32 route float;
#X connect 0 0 10 0;
#X connect 1 0 0 0;
#X connect 2 0 8 0;
#X connect 3 0 14 1;
#X connect 4 0 5 0;
#X connect 5 0 1 0;
#X connect 9 0 8 0;
#X connect 10 0 2 0;
#X connect 10 0 3 0;
#X connect 10 1 9 0;
#X connect 10 1 15 0;
#X connect 10 1 13 1;
#X connect 12 0 16 0;
#X connect 13 0 11 0;
#X connect 14 0 13 0;
#X connect 14 0 18 0;
#X connect 15 0 14 1;
#X connect 16 0 14 0;
#X connect 16 1 19 0;
#X connect 17 0 8 0;
#X connect 18 0 8 0;
#X connect 19 0 17 0;
#X connect 20 0 21 0;
#X connect 21 0 0 0;
#X coords 0 -1 1 1 83 85 2 100 100;
