#N canvas 579 104 1344 786 12;
#X obj 10 10 cnv 5 500 356 empty empty empty 20 12 0 14 -1 -66577 0
;
#X obj 11 24 sigrec~;
#X obj 13 10 cnv 10 81 12 empty empty audio_input 3 7 0 11 -262144
-99865 0;
#X obj 337 24 sigsend~;
#X obj 339 10 cnv 10 81 12 empty empty conti_pitch 3 7 0 11 -262144
-99865 0;
#X obj 422 24 sigsend~;
#X obj 424 10 cnv 10 81 12 empty empty envelope 3 7 0 11 -262144 -99865
0;
#X obj 252 24 sigsend~;
#X obj 254 10 cnv 10 81 12 empty empty discr_pitch 3 7 0 11 -262144
-99865 0;
#X obj 97 25 tgl 83 0 empty empty empty 4 40 0 14 -204786 -66577 -66577
0 1;
#X obj 98 10 cnv 10 81 12 empty empty quantized 3 7 0 11 -262144 -99865
0;
#X obj 182 27 vsl 69 78 0.9 999 1 0 empty \$0-1-r 0ms 4 40 0 22 -204786
-43725 -66577 0 1;
#X obj 183 10 cnv 10 67 12 empty empty portamen 3 7 0 11 -262144 -99865
0;
#N canvas 921 100 630 555 pitch-channel 0;
#X obj 10 14 inlet~ audio;
#X obj 108 15 inlet quantized;
#X obj 224 16 inlet port;
#X obj 11 398 outlet~ disc;
#X obj 132 396 outlet~ cont;
#X obj 236 398 outlet~ env;
#X obj 63 109 sigmund~ notes pitch env;
#X obj 160 169 change;
#X obj 160 145 > 50;
#X obj 231 139 dbtorms;
#X msg 272 183 0 1;
#X msg 346 184 \$1 1;
#X obj 272 162 moses 0.02;
#X obj 299 268 line~;
#X obj 63 244 / 120;
#X obj 63 197 + 0.5;
#X obj 63 221 int;
#X obj 86 49 + 1;
#X obj 133 236 / 120;
#X obj 133 189 + 0.5;
#X obj 133 213 int;
#X obj 424 179 s \$0-1-r;
#X obj 424 126 int;
#X msg 424 155 label \$1ms;
#X obj 63 328 pack 0 f;
#X obj 133 320 pack 0 f;
#X obj 63 352 line~;
#X obj 133 344 line~;
#X obj 63 268 max 0;
#X obj 133 260 moses 0;
#X msg 133 284 0;
#X obj 105 515 s \$0-pitch1-r;
#X obj 105 492 line;
#X obj 105 470 pack 0 f;
#X obj 105 448 - 12;
#X floatatom 410 211 5 0 0 0 - - -;
#X obj 105 424 moses 0;
#X obj 80 151 gated 2 1;
#X obj 10 159 gated 2 1;
#X connect 0 0 6 0;
#X connect 1 0 17 0;
#X connect 2 0 22 0;
#X connect 6 0 38 1;
#X connect 6 1 37 1;
#X connect 6 2 8 0;
#X connect 6 2 9 0;
#X connect 8 0 7 0;
#X connect 9 0 12 0;
#X connect 10 0 13 0;
#X connect 11 0 13 0;
#X connect 12 0 10 0;
#X connect 12 1 11 0;
#X connect 13 0 5 0;
#X connect 14 0 28 0;
#X connect 15 0 16 0;
#X connect 16 0 14 0;
#X connect 16 0 36 0;
#X connect 17 0 37 0;
#X connect 17 0 38 0;
#X connect 18 0 29 0;
#X connect 19 0 20 0;
#X connect 20 0 18 0;
#X connect 22 0 23 0;
#X connect 22 0 24 1;
#X connect 22 0 25 1;
#X connect 22 0 33 1;
#X connect 22 0 35 0;
#X connect 23 0 21 0;
#X connect 24 0 26 0;
#X connect 25 0 27 0;
#X connect 26 0 3 0;
#X connect 27 0 4 0;
#X connect 28 0 24 0;
#X connect 29 0 30 0;
#X connect 29 1 25 0;
#X connect 30 0 25 0;
#X connect 32 0 31 0;
#X connect 33 0 32 0;
#X connect 34 0 33 0;
#X connect 36 1 34 0;
#X connect 37 0 18 0;
#X connect 37 1 19 0;
#X connect 38 0 14 0;
#X connect 38 0 36 0;
#X connect 38 1 15 0;
#X restore 668 197 pd pitch-channel;
#X obj 11 109 sigrec~;
#X obj 337 109 sigsend~;
#X obj 422 109 sigsend~;
#X obj 252 109 sigsend~;
#X obj 97 110 tgl 83 0 empty empty empty 4 40 0 14 -204786 -66577 -66577
0 1;
#X obj 182 112 vsl 69 78 0.9 999 1 0 empty \$0-2-r 0ms 4 40 0 22 -204786
-43725 -66577 0 1;
#N canvas 1063 342 630 555 pitch-channel 0;
#X obj 10 14 inlet~ audio;
#X obj 108 15 inlet quantized;
#X obj 224 16 inlet port;
#X obj 11 398 outlet~ disc;
#X obj 130 396 outlet~ cont;
#X obj 236 398 outlet~ env;
#X obj 63 109 sigmund~ notes pitch env;
#X obj 160 169 change;
#X obj 160 145 > 50;
#X obj 231 139 dbtorms;
#X floatatom 231 163 5 0 0 0 - - -;
#X msg 272 183 0 1;
#X msg 346 184 \$1 1;
#X obj 272 162 moses 0.02;
#X obj 299 268 line~;
#X obj 63 244 / 120;
#X obj 63 197 + 0.5;
#X obj 63 221 int;
#X obj 86 49 + 1;
#X obj 133 236 / 120;
#X obj 133 189 + 0.5;
#X obj 133 213 int;
#X obj 424 126 int;
#X msg 424 155 label \$1ms;
#X obj 63 328 pack 0 f;
#X obj 133 320 pack 0 f;
#X obj 63 352 line~;
#X obj 133 344 line~;
#X obj 63 268 max 0;
#X obj 133 260 moses 0;
#X msg 133 284 0;
#X obj 424 179 s \$0-2-r;
#X obj 103 526 s \$0-pitch2-r;
#X obj 103 492 line;
#X obj 103 470 pack 0 f;
#X obj 103 448 - 12;
#X obj 103 424 moses 0;
#X obj 10 159 gated 2 1;
#X obj 80 151 gated 2 1;
#X connect 0 0 6 0;
#X connect 1 0 18 0;
#X connect 2 0 22 0;
#X connect 6 0 37 1;
#X connect 6 1 38 1;
#X connect 6 2 8 0;
#X connect 6 2 9 0;
#X connect 8 0 7 0;
#X connect 9 0 10 0;
#X connect 9 0 13 0;
#X connect 11 0 14 0;
#X connect 12 0 14 0;
#X connect 13 0 11 0;
#X connect 13 1 12 0;
#X connect 14 0 5 0;
#X connect 15 0 28 0;
#X connect 16 0 17 0;
#X connect 17 0 15 0;
#X connect 17 0 36 0;
#X connect 18 0 37 0;
#X connect 18 0 38 0;
#X connect 19 0 29 0;
#X connect 20 0 21 0;
#X connect 21 0 19 0;
#X connect 22 0 23 0;
#X connect 22 0 24 1;
#X connect 22 0 25 1;
#X connect 23 0 31 0;
#X connect 24 0 26 0;
#X connect 25 0 27 0;
#X connect 26 0 3 0;
#X connect 27 0 4 0;
#X connect 28 0 24 0;
#X connect 29 0 30 0;
#X connect 29 1 25 0;
#X connect 30 0 25 0;
#X connect 33 0 32 0;
#X connect 34 0 33 0;
#X connect 35 0 34 0;
#X connect 36 1 35 0;
#X connect 37 0 15 0;
#X connect 37 0 36 0;
#X connect 37 1 16 0;
#X connect 38 0 19 0;
#X connect 38 1 20 0;
#X restore 668 282 pd pitch-channel;
#X obj 11 194 sigrec~;
#X obj 337 194 sigsend~;
#X obj 422 194 sigsend~;
#X obj 252 194 sigsend~;
#X obj 97 195 tgl 83 0 empty empty empty 4 40 0 14 -204786 -66577 -66577
0 1;
#X obj 182 197 vsl 69 78 0.9 999 1 0 empty \$0-3-r 0ms 4 40 0 22 -204786
-43725 -66577 0 1;
#N canvas 0 50 630 555 pitch-channel 0;
#X obj 10 14 inlet~ audio;
#X obj 108 15 inlet quantized;
#X obj 224 16 inlet port;
#X obj 11 398 outlet~ disc;
#X obj 130 396 outlet~ cont;
#X obj 236 398 outlet~ env;
#X obj 63 109 sigmund~ notes pitch env;
#X obj 160 169 change;
#X obj 160 145 > 50;
#X obj 231 139 dbtorms;
#X floatatom 231 163 5 0 0 0 - - -;
#X msg 272 183 0 1;
#X msg 346 184 \$1 1;
#X obj 272 162 moses 0.02;
#X obj 299 268 line~;
#X obj 63 244 / 120;
#X obj 63 197 + 0.5;
#X obj 63 221 int;
#X obj 86 49 + 1;
#X obj 133 236 / 120;
#X obj 133 189 + 0.5;
#X obj 133 213 int;
#X obj 424 126 int;
#X msg 424 155 label \$1ms;
#X obj 63 328 pack 0 f;
#X obj 133 320 pack 0 f;
#X obj 63 352 line~;
#X obj 133 344 line~;
#X obj 63 268 max 0;
#X obj 133 260 moses 0;
#X msg 133 284 0;
#X obj 424 179 s \$0-3-r;
#X obj 103 526 s \$0-pitch3-r;
#X obj 103 492 line;
#X obj 103 470 pack 0 f;
#X obj 103 448 - 12;
#X obj 103 424 moses 0;
#X obj 10 159 gated 2 1;
#X obj 80 151 gated 2 1;
#X connect 0 0 6 0;
#X connect 1 0 18 0;
#X connect 2 0 22 0;
#X connect 6 0 37 1;
#X connect 6 1 38 1;
#X connect 6 2 8 0;
#X connect 6 2 9 0;
#X connect 8 0 7 0;
#X connect 9 0 10 0;
#X connect 9 0 13 0;
#X connect 11 0 14 0;
#X connect 12 0 14 0;
#X connect 13 0 11 0;
#X connect 13 1 12 0;
#X connect 14 0 5 0;
#X connect 15 0 28 0;
#X connect 16 0 17 0;
#X connect 17 0 15 0;
#X connect 17 0 36 0;
#X connect 18 0 37 0;
#X connect 18 0 38 0;
#X connect 19 0 29 0;
#X connect 20 0 21 0;
#X connect 21 0 19 0;
#X connect 22 0 23 0;
#X connect 22 0 24 1;
#X connect 22 0 25 1;
#X connect 23 0 31 0;
#X connect 24 0 26 0;
#X connect 25 0 27 0;
#X connect 26 0 3 0;
#X connect 27 0 4 0;
#X connect 28 0 24 0;
#X connect 29 0 30 0;
#X connect 29 1 25 0;
#X connect 30 0 25 0;
#X connect 33 0 32 0;
#X connect 34 0 33 0;
#X connect 35 0 34 0;
#X connect 36 1 35 0;
#X connect 37 0 15 0;
#X connect 37 0 36 0;
#X connect 37 1 16 0;
#X connect 38 0 19 0;
#X connect 38 1 20 0;
#X restore 668 367 pd pitch-channel;
#X obj 98 279 pitch-select 1 \$0;
#X obj 181 279 pitch-select 2 \$0;
#X obj 264 279 pitch-select 3 \$0;
#X obj 637 20 loadbang;
#X msg 637 44 0;
#X msg 670 44 0.9;
#X connect 1 0 13 0;
#X connect 9 0 13 1;
#X connect 11 0 13 2;
#X connect 13 0 7 0;
#X connect 13 1 3 0;
#X connect 13 2 5 0;
#X connect 14 0 20 0;
#X connect 18 0 20 1;
#X connect 19 0 20 2;
#X connect 20 0 17 0;
#X connect 20 1 15 0;
#X connect 20 2 16 0;
#X connect 21 0 27 0;
#X connect 25 0 27 1;
#X connect 26 0 27 2;
#X connect 27 0 24 0;
#X connect 27 1 22 0;
#X connect 27 2 23 0;
#X connect 31 0 32 0;
#X connect 31 0 33 0;
#X connect 32 0 9 0;
#X connect 32 0 18 0;
#X connect 32 0 25 0;
#X connect 33 0 11 0;
#X connect 33 0 26 0;
#X connect 33 0 19 0;
#X coords 0 -1 1 1 500 356 2 10 10;
