#N canvas 0 50 687 868 10;
#X obj 19 11 loadbang;
#X msg 29 35 bang;
#X text 56 56 front left;
#X obj 19 77 t b f;
#X obj 9 111 f 1;
#X obj 19 354 pow 2;
#X obj 104 352 pow 2;
#X obj 110 22 inlet sound-x;
#X obj 129 76 inlet sound-y;
#X obj 19 265 -;
#X obj 28 241 t b f;
#X obj 74 265 -;
#X obj 83 241 t b f;
#X obj 64 422 +;
#X obj 66 398 t b f;
#X obj 62 446 sqrt;
#X obj 20 329 abs;
#X obj 103 328 abs;
#X obj 62 489 min 2;
#X obj 32 512 - 2;
#X obj 62 535 / -2;
#X obj 62 561 outlet;
#X obj 47 117 * 0.0174544;
#X floatatom 7 210 5 0 0 0 - - -, f 5;
#X floatatom 104 207 5 0 0 0 - - -, f 5;
#X floatatom 2 392 5 0 0 0 - - -, f 5;
#X floatatom 128 410 5 0 0 0 - - -, f 5;
#X floatatom 116 471 5 0 0 0 - - -, f 5;
#X floatatom 121 540 5 0 0 0 - - -, f 5;
#X obj 18 175 polartocar;
#X floatatom 58 202 5 0 0 0 - - -, f 5;
#X obj 40 288 > 0;
#X obj 44 311 tgl 15 0 empty empty empty 17 7 0 10 -262144 -1 -1 0
1;
#X obj 105 286 > 0;
#X obj 109 309 tgl 15 0 empty empty empty 17 7 0 10 -262144 -1 -1 1
1;
#X obj 20 56 f \$1;
#X connect 0 0 35 0;
#X connect 1 0 35 0;
#X connect 3 0 4 0;
#X connect 3 1 22 0;
#X connect 4 0 29 0;
#X connect 5 0 13 0;
#X connect 5 0 25 0;
#X connect 6 0 14 0;
#X connect 6 0 26 0;
#X connect 7 0 10 0;
#X connect 7 0 30 0;
#X connect 8 0 12 0;
#X connect 9 0 16 0;
#X connect 9 0 31 0;
#X connect 10 0 9 0;
#X connect 10 1 9 1;
#X connect 11 0 17 0;
#X connect 11 0 33 0;
#X connect 12 0 11 0;
#X connect 12 1 11 1;
#X connect 13 0 15 0;
#X connect 14 0 13 0;
#X connect 14 1 13 1;
#X connect 15 0 18 0;
#X connect 15 0 27 0;
#X connect 16 0 5 0;
#X connect 17 0 6 0;
#X connect 18 0 19 0;
#X connect 19 0 20 0;
#X connect 20 0 21 0;
#X connect 20 0 28 0;
#X connect 22 0 29 1;
#X connect 29 0 9 0;
#X connect 29 0 23 0;
#X connect 29 1 11 0;
#X connect 29 1 24 0;
#X connect 31 0 32 0;
#X connect 33 0 34 0;
#X connect 35 0 3 0;
