#N canvas 0 50 450 300 10;
#X obj 31 33 inlet r;
#X obj 168 32 inlet angle;
#X obj 36 142 *;
#X obj 129 76 cos;
#X obj 129 98 t b f;
#X obj 141 154 *;
#X obj 226 102 t b f;
#X obj 226 80 sin;
#X obj 36 164 outlet x;
#X obj 141 176 outlet y;
#X connect 0 0 5 0;
#X connect 0 0 2 0;
#X connect 1 0 3 0;
#X connect 1 0 7 0;
#X connect 2 0 8 0;
#X connect 3 0 4 0;
#X connect 4 0 2 0;
#X connect 4 1 2 1;
#X connect 5 0 9 0;
#X connect 6 0 5 0;
#X connect 6 1 5 1;
#X connect 7 0 6 0;
