#N canvas 505 75 1236 927 12;
#X obj 10 10 cnv 5 500 356 empty empty empty 20 12 0 14 -1 -66577 0
;
#X obj 421 26 cnv 15 87 82 empty \$0-gate-flash1 empty 20 12 0 14 -1
-66577 0;
#X obj 421 110 cnv 15 87 82 empty \$0-gate-flash2 empty 20 12 0 14
-262144 -66577 0;
#X obj 421 195 cnv 15 87 82 empty \$0-gate-flash3 empty 20 12 0 14
-1 -66577 0;
#X obj 421 280 cnv 15 87 82 empty \$0-gate-flash4 empty 20 12 0 14
-262144 -66577 0;
#X obj 956 21 loadbang;
#X msg 956 45 1;
#X obj 956 68 tgl 15 0 empty empty empty 17 7 0 10 -262144 -1 -1 1
1;
#X msg 993 45 8;
#X obj 41 587 *~ 0.2;
#X obj 40 612 *~;
#X obj 40 636 +~;
#X obj 111 587 *~ 0.2;
#X obj 110 612 *~;
#X obj 110 636 +~;
#X obj 181 587 *~ 0.2;
#X obj 180 612 *~;
#X obj 180 636 +~;
#X obj 251 587 *~ 0.2;
#X obj 250 612 *~;
#X obj 250 636 +~;
#X obj 263 703 delwrite~ \$0loop 5;
#X obj 41 560 delread4~ \$0loop 0;
#X obj 362 787 +~;
#X obj 422 787 +~;
#X obj 482 787 +~;
#X obj 300 787 +~;
#X obj 106 531 f;
#X obj 167 538 f;
#X obj 217 538 f;
#X obj 259 538 f;
#X obj 300 733 *~ 0.2;
#X obj 317 761 *~ 0.8;
#X obj 362 733 *~ 0.2;
#X obj 379 761 *~ 0.8;
#X obj 422 733 *~ 0.2;
#X obj 440 761 *~ 0.8;
#X obj 482 733 *~ 0.2;
#X obj 500 761 *~ 0.8;
#X obj 612 671 expr~ $v1 > $v2;
#X obj 612 702 snapshot~;
#X obj 742 639 expr~ $v1 > $v2;
#X obj 742 663 snapshot~;
#X obj 637 760 expr~ $v1 > $v2;
#X obj 637 784 snapshot~;
#X obj 759 719 expr~ $v1 > $v2;
#X obj 759 743 snapshot~;
#X obj 612 726 change;
#X obj 742 687 change;
#X obj 637 808 change;
#X obj 759 767 change;
#X obj 956 88 metro 17;
#X msg 1016 133 \; pd dsp 1;
#X obj 40 681 osc~;
#X obj 110 681 osc~;
#X obj 180 681 osc~;
#X obj 250 681 osc~;
#X obj 528 840 s \$0-gate-flash1;
#X obj 528 792 - 1;
#X msg 528 816 color \$1;
#X obj 658 835 - 1;
#X msg 658 859 color \$1;
#X obj 658 883 s \$0-gate-flash2;
#X obj 732 788 - 1;
#X msg 732 812 color \$1;
#X obj 732 836 s \$0-gate-flash3;
#X obj 851 810 - 1;
#X msg 851 834 color \$1;
#X obj 851 858 s \$0-gate-flash4;
#X obj 248 24 sigsend~;
#X obj 333 24 sigsend~;
#X obj 418 24 sigsend~;
#X obj 11 24 bignbx;
#X obj 248 109 sigsend~;
#X obj 333 109 sigsend~;
#X obj 418 109 sigsend~;
#X obj 11 109 bignbx;
#X obj 248 194 sigsend~;
#X obj 333 194 sigsend~;
#X obj 418 194 sigsend~;
#X obj 11 194 bignbx;
#X obj 248 279 sigsend~;
#X obj 333 279 sigsend~;
#X obj 418 279 sigsend~;
#X obj 11 279 bignbx;
#X obj 250 10 cnv 10 81 12 empty empty FM_A_output 3 7 0 11 -262144
-99865 0;
#X obj 420 10 cnv 10 81 12 empty empty A>B_gate 3 7 0 11 -262144 -99865
0;
#X obj 335 10 cnv 10 81 12 empty empty A*B_AM_out 3 7 0 11 -262144
-99865 0;
#X obj 165 10 cnv 10 81 12 empty empty phase_reset 3 7 0 11 -262144
-99865 0;
#X obj 90 10 cnv 10 71 12 empty empty 0.001Hz 3 7 0 11 -262144 -99865
0;
#X obj 13 10 cnv 10 72 12 empty empty Rate_10Hz 3 7 0 11 -262144 -99865
0;
#X obj 163 24 sigrec~;
#X obj 163 109 sigrec~;
#X obj 163 194 sigrec~;
#X obj 163 279 sigrec~;
#N canvas 0 50 450 300 uptrig~ 0;
#X obj 151 124 -;
#X obj 119 97 t f f;
#X obj 151 148 > 0;
#X obj 151 169 change;
#X obj 151 193 sel 1;
#X obj 119 73 env~ 64 64;
#X msg 151 217 0;
#X obj 119 45 inlet~;
#X obj 151 241 outlet;
#X connect 0 0 2 0;
#X connect 1 0 0 1;
#X connect 1 1 0 0;
#X connect 2 0 3 0;
#X connect 3 0 4 0;
#X connect 4 0 6 0;
#X connect 5 0 1 0;
#X connect 6 0 8 0;
#X connect 7 0 5 0;
#X restore 146 462 pd uptrig~;
#N canvas 0 50 450 300 uptrig~ 0;
#X obj 151 124 -;
#X obj 119 97 t f f;
#X obj 151 148 > 0;
#X obj 151 169 change;
#X obj 151 193 sel 1;
#X obj 119 73 env~ 64 64;
#X msg 151 217 0;
#X obj 119 45 inlet~;
#X obj 151 241 outlet;
#X connect 0 0 2 0;
#X connect 1 0 0 1;
#X connect 1 1 0 0;
#X connect 2 0 3 0;
#X connect 3 0 4 0;
#X connect 4 0 6 0;
#X connect 5 0 1 0;
#X connect 6 0 8 0;
#X connect 7 0 5 0;
#X restore 224 462 pd uptrig~;
#N canvas 0 50 450 300 uptrig~ 0;
#X obj 151 124 -;
#X obj 119 97 t f f;
#X obj 151 148 > 0;
#X obj 151 169 change;
#X obj 151 193 sel 1;
#X obj 119 73 env~ 64 64;
#X msg 151 217 0;
#X obj 119 45 inlet~;
#X obj 151 241 outlet;
#X connect 0 0 2 0;
#X connect 1 0 0 1;
#X connect 1 1 0 0;
#X connect 2 0 3 0;
#X connect 3 0 4 0;
#X connect 4 0 6 0;
#X connect 5 0 1 0;
#X connect 6 0 8 0;
#X connect 7 0 5 0;
#X restore 302 462 pd uptrig~;
#N canvas 0 50 450 300 uptrig~ 0;
#X obj 151 124 -;
#X obj 119 97 t f f;
#X obj 151 148 > 0;
#X obj 151 169 change;
#X obj 151 193 sel 1;
#X obj 119 73 env~ 64 64;
#X msg 151 217 0;
#X obj 119 45 inlet~;
#X obj 151 241 outlet;
#X connect 0 0 2 0;
#X connect 1 0 0 1;
#X connect 1 1 0 0;
#X connect 2 0 3 0;
#X connect 3 0 4 0;
#X connect 4 0 6 0;
#X connect 5 0 1 0;
#X connect 6 0 8 0;
#X connect 7 0 5 0;
#X restore 380 462 pd uptrig~;
#X connect 5 0 6 0;
#X connect 5 0 8 0;
#X connect 5 0 52 0;
#X connect 6 0 7 0;
#X connect 7 0 51 0;
#X connect 9 0 10 0;
#X connect 10 0 11 0;
#X connect 11 0 53 0;
#X connect 12 0 13 0;
#X connect 13 0 14 0;
#X connect 14 0 54 0;
#X connect 15 0 16 0;
#X connect 16 0 17 0;
#X connect 17 0 55 0;
#X connect 18 0 19 0;
#X connect 19 0 20 0;
#X connect 20 0 56 0;
#X connect 22 0 9 0;
#X connect 22 0 31 0;
#X connect 23 0 74 0;
#X connect 24 0 78 0;
#X connect 25 0 82 0;
#X connect 26 0 70 0;
#X connect 27 0 10 1;
#X connect 27 0 11 1;
#X connect 28 0 13 1;
#X connect 28 0 14 1;
#X connect 29 0 16 1;
#X connect 29 0 17 1;
#X connect 30 0 19 1;
#X connect 30 0 20 1;
#X connect 31 0 26 0;
#X connect 32 0 26 1;
#X connect 33 0 23 0;
#X connect 34 0 23 1;
#X connect 35 0 24 0;
#X connect 36 0 24 1;
#X connect 37 0 25 0;
#X connect 38 0 25 1;
#X connect 39 0 40 0;
#X connect 39 0 71 0;
#X connect 40 0 47 0;
#X connect 41 0 42 0;
#X connect 41 0 79 0;
#X connect 42 0 48 0;
#X connect 43 0 44 0;
#X connect 43 0 75 0;
#X connect 44 0 49 0;
#X connect 45 0 46 0;
#X connect 45 0 83 0;
#X connect 46 0 50 0;
#X connect 47 0 58 0;
#X connect 48 0 63 0;
#X connect 49 0 60 0;
#X connect 50 0 66 0;
#X connect 51 0 40 0;
#X connect 51 0 42 0;
#X connect 51 0 44 0;
#X connect 51 0 46 0;
#X connect 53 0 12 0;
#X connect 53 0 32 0;
#X connect 53 0 33 0;
#X connect 53 0 39 0;
#X connect 53 0 45 1;
#X connect 53 0 69 0;
#X connect 54 0 15 0;
#X connect 54 0 34 0;
#X connect 54 0 35 0;
#X connect 54 0 39 1;
#X connect 54 0 43 0;
#X connect 54 0 73 0;
#X connect 55 0 18 0;
#X connect 55 0 36 0;
#X connect 55 0 37 0;
#X connect 55 0 43 1;
#X connect 55 0 41 0;
#X connect 55 0 77 0;
#X connect 56 0 21 0;
#X connect 56 0 38 0;
#X connect 56 0 41 1;
#X connect 56 0 45 0;
#X connect 56 0 81 0;
#X connect 58 0 59 0;
#X connect 59 0 57 0;
#X connect 60 0 61 0;
#X connect 61 0 62 0;
#X connect 63 0 64 0;
#X connect 64 0 65 0;
#X connect 66 0 67 0;
#X connect 67 0 68 0;
#X connect 72 0 27 0;
#X connect 76 0 28 0;
#X connect 80 0 29 0;
#X connect 84 0 30 0;
#X connect 91 0 95 0;
#X connect 92 0 96 0;
#X connect 93 0 97 0;
#X connect 94 0 98 0;
#X connect 95 0 53 1;
#X connect 96 0 54 1;
#X connect 97 0 55 1;
#X connect 98 0 56 1;
#X coords 0 -1 1 1 500 356 2 10 10;
