#N canvas 366 182 1170 421 12;
#X msg 431 206 set \$1;
#X msg 519 195 set \$1-sigsend;
#X msg 547 125 bang;
#X obj 547 149 f \$0;
#X msg 547 173 set \$1-placeholder;
#X obj 240 92 select 0;
#X msg 293 304 label \$1;
#X obj 293 279 makefilename %i;
#X obj 240 71 change;
#X obj 261 379 s \$0-disp-r;
#X obj 293 118 moses 9;
#X msg 433 323 label A;
#X msg 451 344 label B;
#X msg 470 302 label C;
#X msg 488 323 label D;
#X msg 506 344 label E;
#X msg 525 302 label F;
#X msg 543 323 label G;
#X msg 561 344 label H;
#X obj 101 225 int;
#X msg 240 140 label -;
#X msg 339 141 0;
#X msg 248 115 0;
#X obj 101 201 / 4;
#X obj 519 86 - 8;
#X obj 519 228 r~ \$0-placeholder;
#X obj 431 230 adc~ 0;
#X obj 431 254 outlet~;
#X obj 593 133 s~ \$0-placeholder;
#X msg 585 302 label I;
#X msg 603 323 label J;
#X msg 621 344 label K;
#X msg 650 300 label L;
#X msg 668 323 label M;
#X msg 684 344 label N;
#X obj 415 278 select 0 9 10 11 12 13 14 15 16 17 18 19 20 21 22,
f 52;
#X obj 101 101 nbx 3 83 0 88 0 0 empty empty empty 0 -8 0 15 -204800
-1 -1 0 256;
#X obj 101 101 cnv 20 83 83 empty empty empty 2 18 0 28 -1 -66577 0
;
#X obj 102 102 cnv 20 81 81 empty \$0-disp-r - 12 44 0 100 -204800
-66577 0;
#X connect 0 0 26 0;
#X connect 1 0 25 0;
#X connect 2 0 3 0;
#X connect 3 0 4 0;
#X connect 4 0 25 0;
#X connect 5 0 20 0;
#X connect 5 0 22 0;
#X connect 5 0 2 0;
#X connect 5 1 10 0;
#X connect 6 0 9 0;
#X connect 7 0 6 0;
#X connect 8 0 5 0;
#X connect 10 0 7 0;
#X connect 10 0 0 0;
#X connect 10 1 21 0;
#X connect 10 1 24 0;
#X connect 10 1 35 0;
#X connect 11 0 9 0;
#X connect 12 0 9 0;
#X connect 13 0 9 0;
#X connect 14 0 9 0;
#X connect 15 0 9 0;
#X connect 16 0 9 0;
#X connect 17 0 9 0;
#X connect 18 0 9 0;
#X connect 19 0 8 0;
#X connect 20 0 9 0;
#X connect 21 0 0 0;
#X connect 22 0 0 0;
#X connect 23 0 19 0;
#X connect 24 0 1 0;
#X connect 25 0 27 0;
#X connect 26 0 27 0;
#X connect 29 0 9 0;
#X connect 30 0 9 0;
#X connect 31 0 9 0;
#X connect 32 0 9 0;
#X connect 33 0 9 0;
#X connect 34 0 9 0;
#X connect 35 1 11 0;
#X connect 35 2 12 0;
#X connect 35 3 13 0;
#X connect 35 4 14 0;
#X connect 35 5 15 0;
#X connect 35 6 16 0;
#X connect 35 7 17 0;
#X connect 35 8 18 0;
#X connect 35 9 29 0;
#X connect 35 10 30 0;
#X connect 35 11 31 0;
#X connect 35 12 32 0;
#X connect 35 13 33 0;
#X connect 35 14 34 0;
#X connect 36 0 23 0;
#X coords 0 -1 1 1 85 85 2 100 100;
