#N canvas 842 416 969 456 12;
#X msg 431 166 set \$1;
#X obj 431 190 dac~ 0;
#X obj 355 66 inlet~;
#X msg 519 195 set \$1-sigsend;
#X obj 519 228 throw~ \$0-placeholder;
#X obj 519 249 catch~ \$0-placeholder;
#X msg 547 125 bang;
#X obj 547 149 f \$0;
#X msg 547 173 set \$1-placeholder;
#X obj 350 202 select 0;
#X msg 403 304 label \$1;
#X obj 403 279 makefilename %i;
#X obj 350 181 change;
#X obj 377 413 s \$0-disp-r;
#X obj 403 228 moses 9;
#X msg 543 363 label A;
#X msg 561 384 label B;
#X msg 580 342 label C;
#X msg 598 363 label D;
#X msg 616 384 label E;
#X msg 635 342 label F;
#X msg 653 363 label G;
#X msg 671 384 label H;
#X obj 101 225 int;
#X msg 350 250 label -;
#X msg 449 251 0;
#X msg 358 225 0;
#X obj 101 101 nbx 3 83 0 88 0 0 empty empty empty 0 -8 0 15 -262144
-1 -1 0 256;
#X obj 101 201 / 4;
#X obj 101 101 cnv 20 83 83 empty empty empty 2 18 0 28 -1 -66577 0
;
#X obj 102 102 cnv 20 81 81 empty \$0-disp-r - 12 44 0 100 -228856
-66577 0;
#X obj 519 86 - 8;
#X msg 706 342 label I;
#X msg 724 363 label J;
#X msg 742 384 label K;
#X msg 771 340 label L;
#X msg 789 363 label M;
#X msg 805 384 label N;
#X obj 525 318 select 0 9 10 11 12 13 14 15 16 17 18 19 20 21 22;
#X floatatom 121 253 5 0 0 0 - - -;
#X connect 0 0 1 0;
#X connect 2 0 1 0;
#X connect 2 0 4 0;
#X connect 3 0 4 0;
#X connect 6 0 7 0;
#X connect 7 0 8 0;
#X connect 8 0 4 0;
#X connect 9 0 24 0;
#X connect 9 0 26 0;
#X connect 9 0 6 0;
#X connect 9 1 14 0;
#X connect 10 0 13 0;
#X connect 11 0 10 0;
#X connect 12 0 9 0;
#X connect 14 0 11 0;
#X connect 14 0 0 0;
#X connect 14 1 25 0;
#X connect 14 1 31 0;
#X connect 14 1 38 0;
#X connect 15 0 13 0;
#X connect 16 0 13 0;
#X connect 17 0 13 0;
#X connect 18 0 13 0;
#X connect 19 0 13 0;
#X connect 20 0 13 0;
#X connect 21 0 13 0;
#X connect 22 0 13 0;
#X connect 23 0 12 0;
#X connect 23 0 39 0;
#X connect 24 0 13 0;
#X connect 25 0 0 0;
#X connect 26 0 0 0;
#X connect 27 0 28 0;
#X connect 28 0 23 0;
#X connect 31 0 3 0;
#X connect 32 0 13 0;
#X connect 33 0 13 0;
#X connect 34 0 13 0;
#X connect 35 0 13 0;
#X connect 36 0 13 0;
#X connect 37 0 13 0;
#X connect 38 1 15 0;
#X connect 38 2 16 0;
#X connect 38 3 17 0;
#X connect 38 4 18 0;
#X connect 38 5 19 0;
#X connect 38 6 20 0;
#X connect 38 7 21 0;
#X connect 38 8 22 0;
#X connect 38 9 32 0;
#X connect 38 10 33 0;
#X connect 38 11 34 0;
#X connect 38 12 35 0;
#X connect 38 13 36 0;
#X connect 38 14 37 0;
#X coords 0 -1 1 1 85 85 2 100 100;
