#N canvas 556 186 1344 786 12;
#X obj 10 10 cnv 5 500 356 empty empty empty 20 12 0 14 -1 -66577 0
;
#X obj 12 24 sigrec~;
#X obj 423 24 sigsend~;
#X obj 423 125 sigsend~;
#X obj 97 24 sigrec~;
#X obj 99 10 cnv 10 81 12 empty empty cv 3 7 0 11 -262144 -99865 0
;
#X obj 14 10 cnv 10 81 12 empty empty input 3 7 0 11 -262144 -99865
0;
#X obj 425 10 cnv 10 81 12 empty empty left_mix 3 7 0 11 -262144 -99865
0;
#X obj 425 111 cnv 10 81 12 empty empty right_mix 3 7 0 11 -262144
-99865 0;
#X obj 6 522 *~;
#X obj 24 468 abs~;
#X obj 24 492 *~;
#X obj 64 492 -~ 1;
#X obj 46 545 *~;
#X obj 64 515 *~;
#X obj 253 24 sigsend~;
#X obj 338 24 sigsend~;
#X obj 255 10 cnv 10 81 12 empty empty left_out 3 7 0 11 -262144 -99865
0;
#X obj 340 10 cnv 10 81 12 empty empty right_out 3 7 0 11 -262144 -99865
0;
#X obj 12 109 sigrec~;
#X obj 97 109 sigrec~;
#X obj 111 522 *~;
#X obj 129 468 abs~;
#X obj 129 492 *~;
#X obj 169 492 -~ 1;
#X obj 151 545 *~;
#X obj 169 515 *~;
#X obj 253 109 sigsend~;
#X obj 338 109 sigsend~;
#X obj 12 194 sigrec~;
#X obj 97 194 sigrec~;
#X obj 227 515 *~;
#X obj 245 461 abs~;
#X obj 245 485 *~;
#X obj 285 485 -~ 1;
#X obj 267 538 *~;
#X obj 285 508 *~;
#X obj 253 194 sigsend~;
#X obj 338 194 sigsend~;
#X obj 12 279 sigrec~;
#X obj 97 279 sigrec~;
#X obj 329 519 *~;
#X obj 347 465 abs~;
#X obj 347 489 *~;
#X obj 387 489 -~ 1;
#X obj 369 542 *~;
#X obj 387 512 *~;
#X obj 253 279 sigsend~;
#X obj 338 279 sigsend~;
#X obj 123 663 /~ 4;
#X obj 169 663 /~ 4;
#X obj 183 27 vsl 69 78 0 78 0 0 empty \$0-1-r 0% 8 40 0 22 -204786
-1 -1 0 1;
#X obj 183 112 vsl 69 78 0 78 0 0 empty \$0-2-r 0% 8 40 0 22 -204786
-1 -1 0 1;
#X obj 183 197 vsl 69 78 0 78 0 0 empty \$0-3-r 0% 8 40 0 22 -204786
-1 -1 0 1;
#X obj 183 283 vsl 69 78 0 78 0 0 empty \$0-4-r 0% 8 40 0 22 -204786
-1 -1 0 1;
#X obj 608 259 * 100;
#X obj 608 283 int;
#X obj 608 329 s \$0-1-r;
#X msg 608 305 label \$1%;
#X obj 701 259 * 100;
#X obj 701 283 int;
#X msg 701 305 label \$1%;
#X obj 775 259 * 100;
#X obj 775 283 int;
#X msg 775 305 label \$1%;
#X obj 852 258 * 100;
#X obj 852 282 int;
#X msg 852 304 label \$1%;
#X obj 701 329 s \$0-2-r;
#X obj 775 329 s \$0-3-r;
#X obj 852 328 s \$0-4-r;
#X obj 184 10 cnv 10 67 12 empty empty attenuate 3 7 0 11 -262144 -99865
0;
#X obj 490 496 env~;
#X obj 490 520 t f f;
#X obj 491 548 ==;
#X obj 501 622 pack \$1 3;
#X obj 501 646 line~;
#X obj 501 670 *~;
#X obj 572 622 pack \$1 3;
#X obj 572 646 line~;
#X obj 491 571 - 1;
#X obj 491 595 abs;
#X obj 432 670 pack \$1 3;
#X obj 432 694 line~;
#X obj 432 718 *~;
#X obj 572 594 / 100;
#X obj 501 694 *~;
#X obj 684 495 env~;
#X obj 684 519 t f f;
#X obj 685 547 ==;
#X obj 695 621 pack \$1 3;
#X obj 695 645 line~;
#X obj 695 669 *~;
#X obj 766 621 pack \$1 3;
#X obj 766 645 line~;
#X obj 685 570 - 1;
#X obj 685 594 abs;
#X obj 626 669 pack \$1 3;
#X obj 626 693 line~;
#X obj 626 717 *~;
#X obj 766 593 / 100;
#X obj 695 693 *~;
#X obj 872 497 env~;
#X obj 872 521 t f f;
#X obj 873 549 ==;
#X obj 883 623 pack \$1 3;
#X obj 883 647 line~;
#X obj 883 671 *~;
#X obj 954 623 pack \$1 3;
#X obj 954 647 line~;
#X obj 873 572 - 1;
#X obj 873 596 abs;
#X obj 814 671 pack \$1 3;
#X obj 814 695 line~;
#X obj 814 719 *~;
#X obj 954 595 / 100;
#X obj 883 695 *~;
#X obj 1059 501 env~;
#X obj 1059 525 t f f;
#X obj 1060 553 ==;
#X obj 1070 627 pack \$1 3;
#X obj 1070 651 line~;
#X obj 1070 675 *~;
#X obj 1141 627 pack \$1 3;
#X obj 1141 651 line~;
#X obj 1060 576 - 1;
#X obj 1060 600 abs;
#X obj 1001 675 pack \$1 3;
#X obj 1001 699 line~;
#X obj 1001 723 *~;
#X obj 1141 599 / 100;
#X obj 1070 699 *~;
#X obj 375 730 env~;
#X floatatom 375 754 5 0 0 0 - - -;
#X obj 582 730 env~;
#X floatatom 582 754 5 0 0 0 - - -;
#X obj 766 728 env~;
#X floatatom 766 752 5 0 0 0 - - -;
#X obj 960 731 env~;
#X floatatom 960 755 5 0 0 0 - - -;
#X obj 608 235 / 78;
#X obj 701 235 / 78;
#X obj 775 235 / 78;
#X obj 852 234 / 78;
#X connect 1 0 9 0;
#X connect 1 0 13 0;
#X connect 4 0 72 0;
#X connect 4 0 86 1;
#X connect 9 0 15 0;
#X connect 9 0 49 0;
#X connect 10 0 11 0;
#X connect 10 0 11 1;
#X connect 10 0 12 0;
#X connect 11 0 9 1;
#X connect 12 0 14 0;
#X connect 12 0 14 1;
#X connect 13 0 16 0;
#X connect 13 0 50 0;
#X connect 14 0 13 1;
#X connect 19 0 21 0;
#X connect 19 0 25 0;
#X connect 20 0 87 0;
#X connect 20 0 101 1;
#X connect 21 0 27 0;
#X connect 21 0 49 0;
#X connect 22 0 23 0;
#X connect 22 0 23 1;
#X connect 22 0 24 0;
#X connect 23 0 21 1;
#X connect 24 0 26 0;
#X connect 24 0 26 1;
#X connect 25 0 28 0;
#X connect 25 0 50 0;
#X connect 26 0 25 1;
#X connect 29 0 31 0;
#X connect 29 0 35 0;
#X connect 30 0 102 0;
#X connect 30 0 116 1;
#X connect 31 0 37 0;
#X connect 31 0 49 0;
#X connect 32 0 33 0;
#X connect 32 0 33 1;
#X connect 32 0 34 0;
#X connect 33 0 31 1;
#X connect 34 0 36 0;
#X connect 34 0 36 1;
#X connect 35 0 38 0;
#X connect 35 0 50 0;
#X connect 36 0 35 1;
#X connect 39 0 41 0;
#X connect 39 0 45 0;
#X connect 40 0 117 0;
#X connect 40 0 131 1;
#X connect 41 0 47 0;
#X connect 41 0 49 0;
#X connect 42 0 43 0;
#X connect 42 0 43 1;
#X connect 42 0 44 0;
#X connect 43 0 41 1;
#X connect 44 0 46 0;
#X connect 44 0 46 1;
#X connect 45 0 48 0;
#X connect 45 0 50 0;
#X connect 46 0 45 1;
#X connect 49 0 2 0;
#X connect 50 0 3 0;
#X connect 51 0 140 0;
#X connect 52 0 141 0;
#X connect 53 0 142 0;
#X connect 54 0 143 0;
#X connect 55 0 56 0;
#X connect 56 0 58 0;
#X connect 56 0 85 0;
#X connect 58 0 57 0;
#X connect 59 0 60 0;
#X connect 60 0 61 0;
#X connect 60 0 100 0;
#X connect 61 0 68 0;
#X connect 62 0 63 0;
#X connect 63 0 64 0;
#X connect 63 0 115 0;
#X connect 64 0 69 0;
#X connect 65 0 66 0;
#X connect 66 0 67 0;
#X connect 66 0 130 0;
#X connect 67 0 70 0;
#X connect 72 0 73 0;
#X connect 73 0 74 1;
#X connect 73 1 74 0;
#X connect 74 0 80 0;
#X connect 74 0 82 0;
#X connect 75 0 76 0;
#X connect 76 0 77 0;
#X connect 77 0 86 0;
#X connect 78 0 79 0;
#X connect 79 0 77 1;
#X connect 79 0 84 1;
#X connect 80 0 81 0;
#X connect 81 0 75 0;
#X connect 82 0 83 0;
#X connect 83 0 84 0;
#X connect 84 0 10 0;
#X connect 84 0 132 0;
#X connect 85 0 78 0;
#X connect 86 0 10 0;
#X connect 86 0 132 0;
#X connect 87 0 88 0;
#X connect 88 0 89 1;
#X connect 88 1 89 0;
#X connect 89 0 95 0;
#X connect 89 0 97 0;
#X connect 90 0 91 0;
#X connect 91 0 92 0;
#X connect 92 0 101 0;
#X connect 93 0 94 0;
#X connect 94 0 92 1;
#X connect 94 0 99 1;
#X connect 95 0 96 0;
#X connect 96 0 90 0;
#X connect 97 0 98 0;
#X connect 98 0 99 0;
#X connect 99 0 22 0;
#X connect 99 0 134 0;
#X connect 100 0 93 0;
#X connect 101 0 22 0;
#X connect 101 0 134 0;
#X connect 102 0 103 0;
#X connect 103 0 104 1;
#X connect 103 1 104 0;
#X connect 104 0 110 0;
#X connect 104 0 112 0;
#X connect 105 0 106 0;
#X connect 106 0 107 0;
#X connect 107 0 116 0;
#X connect 108 0 109 0;
#X connect 109 0 107 1;
#X connect 109 0 114 1;
#X connect 110 0 111 0;
#X connect 111 0 105 0;
#X connect 112 0 113 0;
#X connect 113 0 114 0;
#X connect 114 0 32 0;
#X connect 114 0 136 0;
#X connect 115 0 108 0;
#X connect 116 0 32 0;
#X connect 116 0 136 0;
#X connect 117 0 118 0;
#X connect 118 0 119 1;
#X connect 118 1 119 0;
#X connect 119 0 125 0;
#X connect 119 0 127 0;
#X connect 120 0 121 0;
#X connect 121 0 122 0;
#X connect 122 0 131 0;
#X connect 123 0 124 0;
#X connect 124 0 122 1;
#X connect 124 0 129 1;
#X connect 125 0 126 0;
#X connect 126 0 120 0;
#X connect 127 0 128 0;
#X connect 128 0 129 0;
#X connect 129 0 42 0;
#X connect 129 0 138 0;
#X connect 130 0 123 0;
#X connect 131 0 42 0;
#X connect 131 0 138 0;
#X connect 132 0 133 0;
#X connect 134 0 135 0;
#X connect 136 0 137 0;
#X connect 138 0 139 0;
#X connect 140 0 55 0;
#X connect 141 0 59 0;
#X connect 142 0 62 0;
#X connect 143 0 65 0;
#X coords 0 -1 1 1 500 356 2 10 10;
